<svg width="230" height="71" viewBox="0 0 230 71" fill="none" xmlns="http://www.w3.org/2000/svg">
<path fill-rule="evenodd" clip-rule="evenodd" d="M105.399 29.2798C105.399 31.4303 104.822 32.9191 103.668 33.9943C102.515 34.9868 100.949 35.4831 98.971 35.4831H89.8237V15.4673H103.421L102.432 18.5275H93.0376V23.4074H99.0534C101.031 23.4074 102.597 23.9037 103.668 24.8962C104.822 25.806 105.399 27.2948 105.399 29.2798ZM102.268 29.282C102.268 28.2068 101.938 27.3797 101.361 26.9662C100.702 26.5526 99.7953 26.3872 98.5592 26.3872H93.0378V32.5077H98.3944C98.9712 32.5077 99.5481 32.425 100.043 32.3423C100.537 32.2596 100.949 32.0942 101.279 31.8461C101.608 31.5979 101.855 31.2671 102.02 30.8535C102.103 30.44 102.268 29.861 102.268 29.282ZM109.85 28.3709L110.427 21.0098H120.481V35.5667H117.349V23.6565H113.146L112.734 28.5364C112.652 29.6116 112.487 30.5214 112.322 31.4312C112.157 32.341 111.828 33.0854 111.498 33.7471C111.168 34.4087 110.756 34.905 110.262 35.3186C109.768 35.7321 109.191 35.8975 108.449 35.8975C108.037 35.8975 107.625 35.7321 107.213 35.5667V33.0854H107.625C107.707 33.0854 107.79 33.0027 107.955 33.0027C108.284 32.92 108.614 32.6718 108.861 32.4237C109.108 32.0929 109.273 31.762 109.438 31.2658C109.603 30.8522 109.685 30.356 109.768 29.8597C109.685 29.2807 109.768 28.7845 109.85 28.3709ZM128.556 33.0031C128.886 33.0031 129.298 32.9204 129.71 32.755L130.946 32.2587C131.358 32.0106 131.77 31.8452 132.182 31.597C132.594 31.3489 132.924 31.1835 133.253 31.0181V29.5293H128.226C127.65 29.5293 127.155 29.6947 126.826 30.0256C126.496 30.3564 126.331 30.8527 126.331 31.4316C126.331 32.0933 126.578 32.5068 126.99 32.755C127.402 32.9204 127.897 33.0031 128.556 33.0031ZM130.204 20.5957C131.028 20.5957 131.77 20.6784 132.512 20.9265C133.253 21.1747 133.913 21.5055 134.489 21.9191C135.066 22.3326 135.478 22.9116 135.808 23.5733C136.138 24.2349 136.302 24.9793 136.302 25.8064V32.0924C136.302 32.754 136.385 33.333 136.467 33.8293C136.632 34.3255 136.797 34.8218 137.127 35.4008H133.83C133.665 35.1526 133.583 34.9045 133.501 34.5737C133.418 34.2428 133.336 33.912 133.336 33.6639C132.512 34.2428 131.77 34.7391 130.946 35.1526C130.122 35.5662 129.215 35.7316 128.226 35.7316C127.567 35.7316 126.99 35.6489 126.331 35.4008C125.754 35.1526 125.177 34.9045 124.765 34.4909C124.271 34.0774 123.941 33.6639 123.694 33.0849C123.447 32.5059 123.282 31.9269 123.282 31.2653C123.282 30.5209 123.447 29.9419 123.694 29.3629C123.941 28.784 124.271 28.2877 124.765 27.8742C125.177 27.4606 125.754 27.1298 126.331 26.9644C126.908 26.7162 127.567 26.6335 128.309 26.6335H133.336V26.3027C133.336 25.2275 133.089 24.4831 132.594 23.9868C132.1 23.4905 131.358 23.3251 130.369 23.2424C129.463 23.2424 128.721 23.3251 128.062 23.4905C127.402 23.656 126.743 23.9868 126.001 24.3176L124.683 22.0018C125.589 21.5055 126.578 21.092 127.402 20.8438C128.144 20.7611 129.133 20.5957 130.204 20.5957ZM143.06 23.6547V35.4822H139.928V20.9253H148.993L148.169 23.572H143.06V23.6547ZM161.602 28.2039V27.6249C161.602 26.3843 161.272 25.3091 160.613 24.5647C159.954 23.7376 158.882 23.4067 157.399 23.4067C155.916 23.4067 154.927 23.8203 154.267 24.5647C153.608 25.3918 153.279 26.3843 153.279 27.7076V28.3693C153.279 29.031 153.361 29.6927 153.443 30.2716C153.526 30.8506 153.773 31.3469 154.103 31.7604C154.432 32.174 154.844 32.5048 155.339 32.7529C155.833 33.0011 156.575 33.0838 157.399 33.0838C158.223 33.0838 158.965 33.0011 159.459 32.7529C160.036 32.5048 160.448 32.174 160.778 31.7604C161.107 31.3469 161.355 30.8506 161.437 30.2716C161.519 29.5273 161.602 28.8656 161.602 28.2039ZM157.4 35.8143C156.246 35.8143 155.257 35.6489 154.35 35.2353C153.444 34.8218 152.702 34.3255 152.125 33.5811C151.549 32.9194 151.054 32.0923 150.807 31.1825C150.477 30.2727 150.312 29.2802 150.312 28.205V27.626C150.312 26.6335 150.477 25.641 150.807 24.8139C151.137 23.9868 151.631 23.2424 152.208 22.5807C152.785 21.919 153.526 21.5055 154.433 21.0919C155.257 20.7611 156.246 20.5957 157.317 20.5957C158.306 20.5957 159.295 20.7611 160.119 21.0919C161.026 21.4228 161.767 21.919 162.426 22.5807C163.086 23.1597 163.58 23.9041 163.91 24.8139C164.239 25.641 164.487 26.6335 164.487 27.626V28.205C164.487 29.2802 164.322 30.2727 163.992 31.1825C163.663 32.0923 163.251 32.9194 162.591 33.5811C162.014 34.2428 161.19 34.8218 160.366 35.2353C159.542 35.6489 158.553 35.8143 157.4 35.8143ZM166.546 39.6185V32.8363C166.958 32.8363 167.37 32.8363 167.618 32.7536C167.947 32.6709 168.195 32.5055 168.442 32.2574C168.524 32.1747 168.689 32.0092 168.771 31.8438C168.854 31.6784 169.019 31.513 169.101 31.3476C169.183 31.1822 169.266 30.934 169.348 30.6859C169.431 30.4378 169.513 30.1896 169.678 29.8588C169.925 29.1144 170.172 28.37 170.337 27.6256C170.502 26.8812 170.584 26.1369 170.667 25.3925C170.749 23.9037 170.832 22.2495 170.832 20.5953V15.4673H183.358V32.8363H185.253V39.6185H182.122V35.4831H169.266V39.6185H166.546ZM180.061 32.8358V18.4443H173.88V22.1663C173.88 22.6625 173.88 23.2415 173.798 23.7378C173.798 24.3167 173.715 24.813 173.715 25.3092C173.715 25.8055 173.633 26.3018 173.55 26.798C173.385 27.8733 173.221 28.8658 172.891 29.8583L172.397 31.3471C172.232 31.8433 171.985 32.2569 171.737 32.7531H180.061V32.8358ZM192.834 33.0032C193.163 33.0032 193.575 32.9205 193.988 32.7551L195.224 32.2588C195.636 32.0107 196.048 31.8453 196.46 31.5971C196.872 31.349 197.201 31.1836 197.531 31.0182V29.5294H192.504C191.927 29.5294 191.433 29.6948 191.103 30.0256C190.774 30.3565 190.609 30.8527 190.609 31.4317C190.609 32.0934 190.856 32.5069 191.268 32.7551C191.68 32.9205 192.257 33.0032 192.834 33.0032ZM194.565 20.5957C195.389 20.5957 196.13 20.6784 196.872 20.9265C197.614 21.1747 198.273 21.5055 198.85 21.919C199.427 22.3326 199.839 22.9116 200.168 23.5732C200.498 24.2349 200.663 24.9793 200.663 25.8064V32.0923C200.663 32.754 200.745 33.333 200.828 33.8293C200.992 34.3255 201.157 34.8218 201.487 35.4007H198.191C198.026 35.1526 197.943 34.9045 197.861 34.5736C197.778 34.2428 197.696 33.912 197.696 33.6638C196.872 34.2428 196.13 34.7391 195.306 35.1526C194.482 35.5662 193.576 35.7316 192.587 35.7316C191.927 35.7316 191.351 35.6489 190.691 35.4007C190.115 35.1526 189.538 34.9045 189.126 34.4909C188.631 34.0774 188.302 33.6638 188.054 33.0849C187.807 32.5059 187.642 31.9269 187.642 31.2652C187.642 30.5209 187.807 29.9419 188.054 29.3629C188.302 28.784 188.631 28.2877 189.126 27.8741C189.538 27.4606 190.115 27.1298 190.691 26.9643C191.268 26.7162 191.927 26.6335 192.669 26.6335H197.696V26.3027C197.696 25.2274 197.449 24.483 196.954 23.9868C196.46 23.4905 195.718 23.3251 194.729 23.2424C193.823 23.2424 193.081 23.3251 192.422 23.4905C191.763 23.6559 191.103 23.9868 190.362 24.3176L189.043 22.0017C189.95 21.5055 190.939 21.0919 191.763 20.8438C192.504 20.7611 193.493 20.5957 194.565 20.5957ZM210.799 23.6565V35.484H207.668V23.6565H202.971V21.0098H215.414L214.755 23.6565H210.799ZM230 30.9344C230 31.7615 229.918 32.4232 229.671 33.0021C229.423 33.5811 229.094 34.0774 228.682 34.4082C228.27 34.8218 227.693 35.0699 227.116 35.2353C226.539 35.4007 225.88 35.4834 225.138 35.4834H217.557V21.3401L220.688 20.5957V26.2199H225.221C226.704 26.2199 227.858 26.6335 228.764 27.3779C229.588 28.1223 230 29.2802 230 30.9344ZM226.87 30.9331C226.87 30.106 226.705 29.6097 226.293 29.3616C225.881 29.1135 225.304 29.0308 224.562 29.0308H220.689V32.7527H225.633C225.881 32.7527 226.128 32.67 226.375 32.5873C226.54 32.5046 226.705 32.3392 226.787 32.091C226.787 31.6775 226.87 31.3466 226.87 30.9331Z" fill="#333333"/>
<path fill-rule="evenodd" clip-rule="evenodd" d="M3.37873 51.3613C1.23612 46.895 0 41.9324 0 36.7216C0 17.533 15.9047 2.64521 34.5289 3.47231L34.0345 13.7283H32.9632C20.3548 13.7283 10.2186 24.067 10.2186 36.7216C10.2186 43.5866 13.1853 49.7071 17.8825 53.9253C17.6353 54.6697 17.8001 55.4968 18.1298 56.2412C15.7399 54.9178 13.5149 53.3463 12.2788 52.3538C10.8779 51.2786 9.55933 50.7823 8.07598 50.6169C6.67505 50.4515 5.35652 50.6996 3.79077 51.1959L3.37873 51.3613ZM4.45093 53.431C12.7741 67.988 27.4428 71.7099 42.1938 69.5594C51.0114 68.3188 54.8022 66.0856 64.7736 67.6571C59.8291 60.0478 56.2032 56.4913 51.3411 54.0927C42.9355 49.9572 39.9688 51.3633 31.9752 53.1002C29.4206 53.6792 25.9594 54.1754 20.7677 54.2581C19.202 54.2581 20.6853 56.2432 21.839 56.9048C24.8881 58.7245 33.2937 58.0628 34.7771 57.6492C38.1558 56.6567 33.953 61.8674 23.8168 60.7922C19.5316 60.2959 13.4334 56.0777 10.8788 54.1754C8.81855 52.6866 6.92317 52.6039 4.45093 53.431V53.431ZM29.5855 35.3154C28.267 35.3154 27.2781 36.3907 27.2781 37.714V43.2556C27.2781 44.5789 28.3494 45.6542 29.5855 45.6542H36.2605C37.5791 45.6542 38.568 44.5789 38.568 43.2556V37.714C38.568 36.3907 37.4967 35.3154 36.2605 35.3154H29.5855ZM29.9957 40.692C29.3364 40.692 28.7595 41.2709 28.7595 41.9326V42.9251C28.7595 43.5868 29.3364 44.1658 29.9957 44.1658H31.3966C32.0559 44.1658 32.6327 43.5868 32.6327 42.9251V41.9326C32.6327 41.2709 32.0559 40.692 31.3966 40.692H29.9957ZM34.5294 40.692C33.8701 40.692 33.2933 41.2709 33.2933 41.9326V42.9251C33.2933 43.5868 33.8701 44.1658 34.5294 44.1658H35.9303C36.5896 44.1658 37.1665 43.5868 37.1665 42.9251V41.9326C37.1665 41.2709 36.5896 40.692 35.9303 40.692H34.5294ZM29.9956 36.6401C29.3364 36.6401 28.7595 37.2191 28.7595 37.8808V38.8733C28.7595 39.535 29.3364 40.1139 29.9956 40.1139H31.3966C32.0558 40.1139 32.6327 39.535 32.6327 38.8733V37.8808C32.6327 37.2191 32.0558 36.6401 31.3966 36.6401H29.9956ZM34.5293 36.6401C33.8701 36.6401 33.2932 37.2191 33.2932 37.8808V38.8733C33.2932 39.535 33.8701 40.1139 34.5293 40.1139H35.9303C36.5895 40.1139 37.1664 39.535 37.1664 38.8733V37.8808C37.1664 37.2191 36.5895 36.6401 35.9303 36.6401H34.5293ZM37.0002 20.5124C32.3854 16.1288 33.9511 15.7152 29.0066 20.5124L23.7325 25.475L18.4584 30.4376C14.2556 34.4077 12.6899 34.3249 19.8593 34.2422V52.1075C20.1066 52.0248 20.3538 52.0248 20.6834 52.0248C23.1557 51.9421 25.2983 51.8594 27.1113 51.6113C28.8418 51.4459 30.2428 51.1977 31.4789 50.8669C32.7974 50.5361 33.2918 50.4533 33.7863 50.3706C38.7308 49.2127 41.8623 48.551 46.2299 49.6263V34.2422C52.5753 34.3249 52.0809 34.6558 47.5484 30.4376L42.2743 25.475L37.0002 20.5124ZM65.9253 36.7231C65.9253 44.3324 63.4531 51.2801 59.1678 56.9043C57.9317 55.6637 56.5308 54.5885 55.0474 53.6786C53.6465 52.7688 52.1632 52.0245 50.5974 51.2801C53.8113 47.31 55.7067 42.2647 55.7067 36.7231H65.9253V36.7231ZM55.7075 35.6487H70.0465V34.3253C70.0465 34.0772 70.0465 33.8291 69.9641 33.5809C69.9641 33.4155 69.9641 33.2501 69.8817 33.002L55.5427 34.408C55.6251 34.8216 55.7075 35.2351 55.7075 35.6487V35.6487ZM55.5441 33.5787C55.4617 32.9997 55.3793 32.5034 55.2968 31.9245L65.021 29.6913L65.2682 30.932C65.3506 31.3455 65.433 31.8418 65.433 32.2553L55.5441 33.5787ZM54.4724 29.1963L64.7734 25.7225C64.6086 25.309 64.5262 24.8954 64.3614 24.4819L63.8669 23.2412L53.8956 27.6249C54.1428 28.2038 54.3076 28.7001 54.4724 29.1963V29.1963ZM53.4016 26.5507C53.2368 26.1372 52.9896 25.8063 52.8247 25.3928L64.3619 17.8662C64.6091 18.2797 64.8563 18.6106 65.0211 19.0241C65.2684 19.4377 65.4332 19.7685 65.6804 20.1821L53.4016 26.5507V26.5507ZM50.9282 22.6637C50.5986 22.2501 50.269 21.7539 49.8569 21.3403L57.1912 14.5581C57.5209 14.8889 57.7681 15.2198 58.0153 15.5506C58.2625 15.8815 58.5922 16.2123 58.8394 16.5431L50.9282 22.6637V22.6637ZM47.3848 18.94C47.0551 18.6092 46.6431 18.3611 46.3135 18.1129L54.3895 7.44336C54.7191 7.69149 55.0487 8.02233 55.3784 8.27046C55.708 8.51859 56.0376 8.84943 56.3673 9.09756L47.3848 18.94V18.94ZM45.0766 17.2857C44.5822 16.9549 44.0877 16.7068 43.5933 16.4586L48.2081 7.44327C48.6202 7.6914 48.9498 7.85682 49.3619 8.10495C49.7739 8.35308 50.1035 8.5185 50.4332 8.76663L45.0766 17.2857V17.2857ZM40.5436 15.052L44.252 5.62307C43.8399 5.45765 43.4279 5.29223 43.0159 5.20952C42.6038 5.0441 42.1918 4.96139 41.7797 4.79597L38.9779 14.5557C39.5547 14.6384 40.0492 14.8039 40.5436 15.052ZM37.7431 14.2239C37.3311 14.1412 36.9191 14.0585 36.4246 13.9758L38.1552 0.0805084C38.5672 0.163218 38.9793 0.245928 39.4737 0.245928C39.8857 0.328638 40.2978 0.411348 40.7922 0.494057L37.7431 14.2239V14.2239ZM49.1154 0.496259C48.7857 0.330839 48.4561 0.16542 48.0441 0L43.0172 12.1583C43.182 12.241 43.4292 12.3238 43.594 12.4065C43.7588 12.4892 44.0061 12.5719 44.1709 12.6546L50.1043 0.992517L49.1154 0.496259V0.496259ZM61.1472 7.77574C61.3944 8.02387 61.6416 8.35471 61.9713 8.60284L52.3295 17.4528C52.1647 17.2874 52.0823 17.1219 51.9175 17.0392L51.5054 16.6257L60.3231 6.94864L61.1472 7.77574ZM65.8443 14.0617C65.5971 13.7308 65.4323 13.4 65.185 13.1519L54.884 21.092C55.0488 21.2574 55.1313 21.4228 55.2137 21.5883C55.2961 21.7537 55.4609 21.9191 55.5433 22.0845L66.5036 14.9715C66.2563 14.6406 66.0091 14.3098 65.8443 14.0617V14.0617ZM69.5519 26.7144C69.4695 26.3835 69.3871 25.97 69.2223 25.6392L56.8611 29.5265C56.9435 29.6919 56.9435 29.9401 57.0259 30.1055C57.1083 30.2709 57.1083 30.519 57.1907 30.6845L69.8815 27.7896C69.7991 27.4588 69.6343 27.0452 69.5519 26.7144V26.7144Z" fill="#EF7F2F"/>
<path fill-rule="evenodd" clip-rule="evenodd" d="M91.2246 49.4595C91.2246 49.9558 91.2246 50.3693 91.307 50.7828C91.3894 51.1964 91.4718 51.5272 91.719 51.7754C91.8838 52.0235 92.131 52.2716 92.4607 52.3543C92.7903 52.5198 93.2023 52.6025 93.7792 52.6025C94.1912 52.6025 94.5209 52.5198 94.7681 52.437C95.0153 52.3543 95.345 52.1889 95.5922 51.8581L96.4987 52.6852C96.169 53.0987 95.757 53.3469 95.2625 53.5123C94.7681 53.6777 94.2737 53.7604 93.7792 53.7604C93.0375 53.7604 92.4607 53.6777 91.9662 53.4296C91.4718 53.1814 91.0597 52.9333 90.7301 52.5198C90.4005 52.1062 90.1533 51.6927 89.9884 51.1137C89.8236 50.6174 89.7412 49.9558 89.7412 49.2941V48.8805C89.7412 48.2188 89.8236 47.7226 89.9884 47.2263C90.1533 46.7301 90.4005 46.3165 90.7301 45.9857C91.0597 45.6548 91.4718 45.4067 91.9662 45.2413C92.4607 45.0759 93.0375 44.9932 93.6968 44.9932C94.1912 44.9932 94.6857 45.0759 95.1801 45.2413C95.6746 45.4067 96.0866 45.6548 96.4163 46.0684L95.5098 46.9782C95.2625 46.7301 95.0153 46.5647 94.6857 46.3992C94.4385 46.3165 94.1088 46.2338 93.6968 46.2338C92.7903 46.2338 92.2135 46.4819 91.8014 46.8955C91.3894 47.3917 91.2246 48.0534 91.2246 48.8805V49.4595ZM100.455 48.6316V53.6769H99.1367V48.6316H97.1589V47.4736H102.433L102.186 48.6316H100.455ZM106.388 47.3942C106.883 47.3942 107.212 47.4769 107.624 47.6424C107.954 47.8078 108.284 47.9732 108.531 48.2213C108.778 48.4695 108.943 48.8003 109.108 49.1311C109.273 49.462 109.273 49.8755 109.273 50.2891V51.0335C109.273 51.5297 109.19 51.8606 109.108 52.2741C108.943 52.605 108.778 52.9358 108.531 53.1839C108.284 53.432 108.037 53.5975 107.624 53.6802C107.295 53.7629 106.883 53.8456 106.471 53.8456C106.141 53.8456 105.811 53.7629 105.482 53.5975C105.152 53.432 104.905 53.2666 104.658 53.0185V56.0788H103.339V49.0484C103.339 48.8003 103.339 48.6349 103.257 48.4695C103.257 48.304 103.174 48.1386 103.092 47.8905L104.246 47.3115C104.328 47.3942 104.328 47.5597 104.411 47.6424C104.493 47.7251 104.493 47.8905 104.493 48.0559H104.575C104.823 47.8078 105.07 47.6424 105.317 47.4769C105.811 47.3942 106.141 47.3942 106.388 47.3942ZM106.389 48.5503C106.059 48.5503 105.73 48.633 105.482 48.7984C105.153 48.9638 104.906 49.212 104.741 49.4601V51.6933L105.07 52.0241C105.235 52.1068 105.318 52.2722 105.482 52.3549L105.977 52.6031C106.142 52.6858 106.306 52.6858 106.471 52.6858C106.719 52.6858 106.966 52.6031 107.131 52.5204C107.295 52.4377 107.46 52.3549 107.543 52.1895L107.79 51.6933C107.79 51.5278 107.872 51.2797 107.872 51.0316V50.3699C107.872 50.1218 107.872 49.8736 107.79 49.6255C107.707 49.3774 107.625 49.212 107.543 49.0466C107.46 48.8811 107.295 48.7157 107.048 48.633C106.966 48.5503 106.719 48.5503 106.389 48.5503ZM115.124 50.618V50.3699C115.124 49.7909 114.959 49.3774 114.712 49.0466C114.464 48.7157 113.97 48.5503 113.393 48.5503C112.734 48.5503 112.322 48.7157 112.075 49.0466C111.827 49.3774 111.663 49.7909 111.663 50.3699V50.618C111.663 50.9489 111.663 51.197 111.745 51.4451C111.827 51.6933 111.91 51.8587 111.992 52.1068C112.157 52.2722 112.322 52.4377 112.569 52.5204C112.816 52.6031 113.064 52.6858 113.476 52.6858C113.805 52.6858 114.135 52.6031 114.382 52.5204C114.629 52.4377 114.794 52.2722 114.959 52.1068C115.124 51.9414 115.206 51.6933 115.206 51.4451C115.041 51.197 115.124 50.8662 115.124 50.618ZM113.311 53.8456C112.816 53.8456 112.404 53.7629 111.992 53.5975C111.58 53.432 111.333 53.1839 111.086 52.9358C110.838 52.6049 110.674 52.2741 110.509 51.9433C110.344 51.5297 110.344 51.1162 110.344 50.7026V50.4545C110.344 50.0409 110.426 49.6274 110.591 49.2138C110.756 48.883 110.921 48.5522 111.168 48.2213C111.415 47.9732 111.745 47.7251 112.075 47.5597C112.404 47.3942 112.816 47.3115 113.311 47.3115C113.723 47.3115 114.135 47.3942 114.547 47.5597C114.959 47.7251 115.206 47.8905 115.536 48.1386C115.783 48.3868 116.03 48.7176 116.195 49.0484C116.36 49.3793 116.442 49.7928 116.442 50.2064V50.4545C116.442 50.9508 116.36 51.3643 116.277 51.6951C116.113 52.1087 115.948 52.4395 115.701 52.6877C115.453 53.0185 115.124 53.1839 114.712 53.3493C114.217 53.7629 113.805 53.8456 113.311 53.8456ZM121.552 53.678V49.4598L118.915 53.678H117.514V47.7229L118.832 47.392V51.7757L121.469 47.5575H122.87V53.7607H121.552V53.678ZM127.073 48.6316V53.6769H125.754V48.6316H123.777V47.4736H129.051L128.804 48.6316H127.073ZM131.11 51.0335C131.11 51.2816 131.11 51.5297 131.192 51.6951C131.275 51.8606 131.357 52.1087 131.522 52.1914C131.687 52.3568 131.852 52.4395 132.099 52.5222C132.346 52.6049 132.593 52.6049 133.005 52.6049C133.335 52.6049 133.582 52.5222 133.747 52.4395C133.912 52.3568 134.077 52.1914 134.324 52.026L135.395 52.4395C135.148 52.8531 134.818 53.1839 134.324 53.432C133.912 53.6802 133.417 53.7629 132.923 53.7629C131.934 53.7629 131.11 53.5148 130.616 52.9358C130.121 52.4395 129.792 51.6124 129.792 50.6199V49.8755C129.792 49.462 129.874 49.1311 130.039 48.8003C130.204 48.4695 130.451 48.2213 130.698 47.9732C130.945 47.7251 131.275 47.5597 131.604 47.4769C131.934 47.3942 132.346 47.3115 132.758 47.3115C133.17 47.3115 133.582 47.3942 133.994 47.5597C134.324 47.7251 134.654 47.8905 134.901 48.1386C135.148 48.3868 135.313 48.7176 135.478 49.0484C135.642 49.3793 135.642 49.7928 135.642 50.2891V51.0335H131.11ZM131.111 49.8736H134.242C134.242 49.7082 134.242 49.4601 134.16 49.2947C134.077 49.1293 133.995 48.9638 133.83 48.8811L133.336 48.633C133.171 48.5503 132.924 48.5503 132.759 48.5503C132.594 48.5503 132.347 48.5503 132.182 48.633C132.017 48.7157 131.77 48.7984 131.687 48.8811C131.523 48.9638 131.44 49.1293 131.275 49.2947C131.111 49.4601 131.111 49.6255 131.111 49.8736ZM137.704 50.6166L137.952 47.4736H142.237V53.6769H140.918V48.6316H139.105L138.941 50.6993C138.941 51.1129 138.858 51.5264 138.776 51.94C138.693 52.3535 138.611 52.6843 138.446 52.9325C138.281 53.1806 138.117 53.4287 137.869 53.5942C137.622 53.7596 137.375 53.8423 137.128 53.8423C136.963 53.8423 136.798 53.7596 136.551 53.6769V52.6843H136.88C137.045 52.6843 137.128 52.5189 137.292 52.4362L137.54 51.94C137.622 51.7745 137.622 51.5264 137.704 51.361C137.622 51.0302 137.622 50.8647 137.704 50.6166ZM148.993 51.7779C148.993 52.1087 148.91 52.4395 148.828 52.6877C148.745 52.9358 148.581 53.1012 148.416 53.2666C148.251 53.432 148.004 53.5148 147.757 53.5975C147.509 53.6802 147.18 53.6802 146.932 53.6802H143.719V47.6424L145.037 47.3115V49.7101H147.015C147.674 49.7101 148.169 49.8755 148.498 50.2064C148.828 50.5372 148.993 51.0335 148.993 51.7779ZM147.675 51.7763C147.675 51.4455 147.593 51.1973 147.428 51.1146C147.263 51.0319 147.016 50.9492 146.686 50.9492H145.038V52.5207H147.098C147.181 52.5207 147.346 52.5207 147.428 52.438C147.51 52.3553 147.593 52.3553 147.593 52.1899C147.675 52.1072 147.675 51.9417 147.675 51.7763ZM155.338 47.3942V53.7629H154.02V51.0335H151.383V53.7629H150.064V47.7251L151.383 47.3115V49.7101H154.02V47.7251L155.338 47.3942ZM158.801 52.686C158.966 52.686 159.131 52.686 159.295 52.6033C159.46 52.5206 159.625 52.4379 159.872 52.3552L160.367 52.1071C160.532 52.0244 160.696 51.9417 160.779 51.8589V51.1973H158.636C158.389 51.1973 158.142 51.28 158.059 51.4454C157.895 51.6108 157.895 51.7762 157.895 52.0244C157.895 52.2725 157.977 52.5206 158.142 52.6033C158.307 52.6033 158.554 52.686 158.801 52.686ZM159.542 47.3942C159.872 47.3942 160.202 47.4769 160.531 47.5597C160.861 47.6424 161.108 47.8078 161.355 47.9732C161.602 48.1386 161.767 48.3868 161.932 48.7176C162.097 48.9657 162.179 49.2966 162.179 49.7101V52.3568C162.179 52.605 162.179 52.8531 162.262 53.1012C162.344 53.3493 162.427 53.5148 162.509 53.7629H161.108C161.026 53.6802 161.026 53.5975 160.943 53.432C160.943 53.2666 160.861 53.1839 160.861 53.0185C160.531 53.2666 160.202 53.432 159.789 53.5975C159.46 53.7629 159.048 53.8456 158.636 53.8456C158.389 53.8456 158.059 53.7629 157.812 53.6802C157.564 53.5975 157.317 53.432 157.152 53.2666C156.988 53.1012 156.823 52.9358 156.658 52.6877C156.576 52.4395 156.493 52.1914 156.493 51.9433C156.493 51.6124 156.576 51.3643 156.658 51.1162C156.74 50.868 156.905 50.7026 157.07 50.4545C157.235 50.2891 157.482 50.1237 157.729 50.0409C157.977 49.9582 158.224 49.8755 158.553 49.8755H160.696V49.7101C160.696 49.2966 160.614 48.9657 160.366 48.7176C160.119 48.5522 159.872 48.3868 159.377 48.3868C158.965 48.3868 158.636 48.3868 158.389 48.4695C158.141 48.5522 157.812 48.6349 157.482 48.8003L156.905 47.8078C157.317 47.5597 157.729 47.3942 158.059 47.3115C158.636 47.3942 159.048 47.3942 159.542 47.3942ZM165.062 51.2783C164.568 51.1956 164.156 51.0302 163.909 50.6993C163.662 50.3685 163.579 49.9549 163.579 49.2932C163.579 48.9624 163.662 48.7143 163.744 48.4662C163.909 48.218 164.074 48.0526 164.238 47.8872C164.486 47.7218 164.65 47.6391 164.98 47.5563C165.227 47.4736 165.474 47.4736 165.804 47.4736H168.853V53.6769H167.535V51.4437H166.958C166.875 51.4437 166.793 51.4437 166.711 51.5264C166.628 51.5264 166.546 51.6091 166.463 51.6918L165.557 53.0979C165.392 53.346 165.227 53.5114 164.98 53.6769C164.733 53.8423 164.486 53.925 164.238 53.925C164.156 53.925 164.074 53.925 163.909 53.8423C163.744 53.8423 163.662 53.7596 163.579 53.7596V52.6843C163.744 52.6843 163.909 52.6843 164.074 52.6016C164.238 52.5189 164.403 52.4362 164.486 52.3535L165.062 51.2783ZM167.452 48.6348H165.804C165.474 48.6348 165.227 48.7175 165.145 48.8829C164.98 49.0483 164.897 49.2137 164.897 49.4619C164.897 49.71 164.98 49.9581 165.062 50.0408C165.227 50.2063 165.392 50.2063 165.804 50.2063H167.452V48.6348ZM175.282 47.3921V50.0388H175.776L177.589 47.5575H178.908L176.847 50.5351L178.166 52.3547C178.248 52.5201 178.413 52.6028 178.578 52.6028H178.99V53.5953C178.908 53.678 178.743 53.678 178.66 53.678H178.331C178.248 53.678 178.084 53.678 178.001 53.5953C177.919 53.5126 177.836 53.5126 177.754 53.4299L177.507 53.1818C177.424 53.0991 177.342 53.0164 177.342 52.9336L175.858 50.8659H175.446V53.5953H174.128V47.7229L175.282 47.3921ZM184.758 50.618V50.3699C184.758 49.7909 184.593 49.3774 184.346 49.0466C184.099 48.7157 183.605 48.5503 183.028 48.5503C182.451 48.5503 181.956 48.7157 181.709 49.0466C181.462 49.3774 181.297 49.7909 181.297 50.3699V50.618C181.297 50.9489 181.297 51.197 181.38 51.4451C181.462 51.6933 181.544 51.8587 181.627 52.1068C181.792 52.2722 181.956 52.4377 182.204 52.5204C182.451 52.6031 182.698 52.6858 183.11 52.6858C183.44 52.6858 183.769 52.6031 184.017 52.5204C184.264 52.4377 184.429 52.2722 184.593 52.1068C184.758 51.9414 184.841 51.6933 184.841 51.4451C184.758 51.197 184.758 50.8662 184.758 50.618ZM182.946 53.8456C182.452 53.8456 182.04 53.7629 181.628 53.5975C181.216 53.432 180.969 53.1839 180.721 52.9358C180.474 52.605 180.309 52.2741 180.145 51.9433C179.98 51.5297 179.98 51.1162 179.98 50.7026V50.4545C179.98 50.0409 180.062 49.6274 180.227 49.2138C180.392 48.883 180.557 48.5522 180.804 48.2213C181.051 47.9732 181.381 47.7251 181.71 47.5597C182.04 47.3942 182.452 47.3115 182.946 47.3115C183.358 47.3115 183.771 47.3942 184.183 47.5597C184.595 47.7251 184.842 47.8905 185.171 48.1386C185.419 48.3868 185.666 48.7176 185.831 49.0484C185.996 49.3793 186.078 49.7928 186.078 50.2064V50.4545C186.078 50.9508 185.996 51.3643 185.913 51.6951C185.748 52.1087 185.583 52.4395 185.336 52.6877C185.089 53.0185 184.759 53.1839 184.347 53.3493C183.935 53.7629 183.441 53.8456 182.946 53.8456ZM193.988 47.4736V53.6769H192.835V49.1278L191.186 52.7671H190.033L188.385 49.0451V53.6769H187.148V47.4736H189.044L190.527 50.782L192.011 47.4736H193.988ZM196.871 48.6316V53.6769H195.553V47.4736H200.662V53.6769H199.344V48.6316H196.871ZM204.124 52.686C204.289 52.686 204.454 52.686 204.618 52.6033C204.783 52.5206 204.948 52.4379 205.195 52.3552L205.69 52.1071C205.855 52.0244 206.019 51.9417 206.102 51.8589V51.1973H203.959C203.712 51.1973 203.465 51.28 203.382 51.4454C203.218 51.6108 203.218 51.7762 203.218 52.0244C203.218 52.2725 203.3 52.5206 203.465 52.6033C203.63 52.6033 203.794 52.686 204.124 52.686ZM204.784 47.3942C205.114 47.3942 205.444 47.4769 205.773 47.5597C206.103 47.6424 206.35 47.8078 206.597 47.9732C206.845 48.1386 207.009 48.3868 207.174 48.7176C207.339 48.9657 207.422 49.2966 207.422 49.7101V52.3568C207.422 52.605 207.422 52.8531 207.504 53.1012C207.586 53.3493 207.669 53.5148 207.751 53.7629H206.35C206.268 53.6802 206.268 53.5975 206.185 53.432C206.185 53.2666 206.103 53.1839 206.103 53.0185C205.773 53.2666 205.444 53.432 205.032 53.5975C204.702 53.7629 204.29 53.8456 203.878 53.8456C203.631 53.8456 203.301 53.7629 203.054 53.6802C202.807 53.5975 202.559 53.432 202.395 53.2666C202.23 53.1012 202.065 52.9358 201.9 52.6877C201.818 52.4395 201.735 52.1914 201.735 51.9433C201.735 51.6124 201.818 51.3643 201.9 51.1162C201.983 50.868 202.147 50.7026 202.312 50.4545C202.477 50.2891 202.724 50.1237 202.972 50.0409C203.219 49.9582 203.466 49.8755 203.796 49.8755H205.938V49.7101C205.938 49.2966 205.856 48.9657 205.609 48.7176C205.361 48.5522 205.114 48.3868 204.62 48.3868C204.208 48.3868 203.878 48.3868 203.631 48.4695C203.384 48.5522 203.054 48.6349 202.724 48.8003L202.147 47.8078C202.559 47.5597 202.972 47.3942 203.301 47.3115C203.96 47.3942 204.372 47.3942 204.784 47.3942ZM214.26 47.3942V53.7629H212.942V51.0335H210.305V53.7629H208.986V47.7251L210.305 47.3115V49.7101H212.942V47.7251L214.26 47.3942ZM219.701 53.678V49.4598L217.064 53.678H215.663V47.7229L216.981 47.392V51.7757L219.618 47.5575H221.019V53.7607H219.701V53.678ZM223.903 51.2783C223.408 51.1956 222.996 51.0302 222.749 50.6993C222.502 50.3685 222.419 49.9549 222.419 49.2932C222.419 48.9624 222.502 48.7143 222.584 48.4662C222.749 48.218 222.914 48.0526 223.078 47.8872C223.326 47.7218 223.49 47.6391 223.82 47.5563C224.067 47.4736 224.315 47.4736 224.644 47.4736H227.693V53.6769H226.375V51.4437H225.798C225.716 51.4437 225.633 51.4437 225.551 51.5264C225.468 51.5264 225.386 51.6091 225.303 51.6918L224.397 53.0979C224.232 53.346 224.067 53.5114 223.82 53.6769C223.573 53.8423 223.326 53.925 223.078 53.925C222.996 53.925 222.914 53.925 222.749 53.8423C222.584 53.8423 222.502 53.7596 222.419 53.7596V52.6843C222.584 52.6843 222.749 52.6843 222.914 52.6016C223.078 52.5189 223.243 52.4362 223.326 52.3535L223.903 51.2783ZM226.375 48.6348H224.727C224.397 48.6348 224.15 48.7175 224.067 48.8829C223.902 49.0483 223.82 49.2137 223.82 49.4619C223.82 49.71 223.902 49.9581 223.985 50.0408C224.15 50.2063 224.315 50.2063 224.727 50.2063H226.375V48.6348Z" fill="#333333"/>
</svg>
