<svg width="108" height="34" viewBox="0 0 108 34" fill="none" xmlns="http://www.w3.org/2000/svg">
<path d="M13.4889 12.1122V15.7503H22.1762C21.9103 17.7912 21.2306 19.2849 20.1964 20.3349C18.9259 21.6068 16.9461 22.997 13.4889 22.997C8.14063 22.997 3.95951 18.6786 3.95951 13.3249C3.95951 7.97129 8.14063 3.65289 13.4889 3.65289C16.3699 3.65289 18.4826 4.79165 20.0339 6.25576L22.5899 3.69726C20.4328 1.59722 17.5371 0 13.4889 0C6.16088 0 0 5.97477 0 13.3101C0 20.6455 6.16088 26.6203 13.4889 26.6203C17.4484 26.6203 20.4328 25.3188 22.7672 22.8934C25.1606 20.4976 25.9141 17.1109 25.9141 14.3897C25.9141 13.5468 25.855 12.7629 25.722 12.1122H13.4889Z" fill="#4285F4"/>
<path fill-rule="evenodd" clip-rule="evenodd" d="M28.1597 17.7469C28.1597 12.763 32.0305 9.15443 36.7731 9.15443C41.5156 9.15443 45.3865 12.763 45.3865 17.7469C45.3865 22.7012 41.5156 26.3393 36.7731 26.3393C32.0305 26.3393 28.1597 22.6864 28.1597 17.7469ZM31.927 17.7469C31.927 20.8082 34.1727 22.9526 36.773 22.9526C39.3732 22.9526 41.6189 20.8082 41.6189 17.7469C41.6189 14.656 39.3732 12.5411 36.773 12.5411C34.1727 12.5411 31.927 14.656 31.927 17.7469Z" fill="#EA4335"/>
<path fill-rule="evenodd" clip-rule="evenodd" d="M78.8651 11.077H78.9981V9.59811H82.5735V25.0526C82.5735 31.3971 78.8356 34 74.4181 34C70.2517 34 67.7549 31.2049 66.8093 28.9274L70.0892 27.5668C70.6802 28.9717 72.1133 30.6281 74.4181 30.6281C77.24 30.6281 78.9981 28.8682 78.9981 25.5851V24.3871H78.8651C78.023 25.4224 76.3978 26.3393 74.3442 26.3393C70.0597 26.3393 66.3218 22.5681 66.3218 17.7469C66.3218 12.8961 70.0597 9.15443 74.3442 9.15443C76.3978 9.15443 78.023 10.0714 78.8651 11.077ZM70.0891 17.7469C70.0891 20.7343 72.0689 22.9526 74.6691 22.9526C77.2399 22.9526 79.2639 20.7786 79.2492 17.7765C79.2492 14.7595 77.2399 12.5411 74.6691 12.5411C72.0689 12.5411 70.0891 14.7151 70.0891 17.7469Z" fill="#4285F4"/>
<path fill-rule="evenodd" clip-rule="evenodd" d="M47.3665 17.7469C47.3665 12.763 51.2373 9.15443 55.9799 9.15443C60.7224 9.15443 64.5933 12.763 64.5933 17.7469C64.5933 22.7012 60.7224 26.3393 55.9799 26.3393C51.2373 26.3393 47.3665 22.6864 47.3665 17.7469ZM51.1338 17.7469C51.1338 20.8082 53.3795 22.9526 55.9798 22.9526C58.58 22.9526 60.8257 20.8082 60.8257 17.7469C60.8257 14.656 58.58 12.5411 55.9798 12.5411C53.3795 12.5411 51.1338 14.656 51.1338 17.7469Z" fill="#FBBC05"/>
<path d="M85.5283 0.35495H89.2367V26.3393H85.5283V0.35495Z" fill="#34A853"/>
<path fill-rule="evenodd" clip-rule="evenodd" d="M96.5204 20.3497C97.4069 22.0801 98.7661 22.9526 100.687 22.9526C102.607 22.9526 103.937 22.0061 104.912 20.5864L107.837 22.5385C106.892 23.9287 104.617 26.3393 100.687 26.3393C95.8112 26.3393 92.1768 22.5681 92.1768 17.7469C92.1768 12.6299 95.8556 9.15443 100.273 9.15443C104.72 9.15443 106.907 12.7038 107.616 14.6264L108 15.6025L96.5204 20.3497ZM103.671 14.2714C103.243 13.1622 101.943 12.3784 100.421 12.3784C98.4707 12.3784 95.9148 13.8721 95.9148 17.4806L103.671 14.2714Z" fill="#EA4335"/>
</svg>
