<svg width="50" height="50" viewBox="0 0 50 50" fill="none" xmlns="http://www.w3.org/2000/svg">
<path d="M3.42614 26.1743H6.76647V45.9142C6.76647 46.7861 7.47534 47.4922 8.34888 47.4922H20.3273C21.2008 47.4922 21.9097 46.7862 21.9097 45.9142V33.9877H28.6497V45.9143C28.6497 46.7862 29.3585 47.4923 30.2321 47.4923H42.21C43.0835 47.4923 43.7925 46.7863 43.7924 45.9143V26.1744H47.1334C48.2345 26.1744 49.2045 25.5122 49.6025 24.488L49.6025 24.488C50.0003 23.4636 49.7309 22.3225 48.9165 21.5827L44.8509 17.8896V5.56198C44.8509 4.69011 44.142 3.98397 43.2685 3.98397H33.3637C32.4903 3.98397 31.7813 4.69 31.7813 5.56198V6.01726L27.0628 1.73104C26.0464 0.807599 24.5126 0.807676 23.4966 1.73094C23.4966 1.73095 23.4965 1.73095 23.4965 1.73096L1.64286 21.5828L1.74372 21.6938L1.64285 21.5828C0.828696 22.3225 0.559178 23.4636 0.95709 24.4879L0.957095 24.4879C1.35508 25.5122 2.32497 26.1743 3.42614 26.1743ZM34.003 11.0329L34.0031 11.0329C34.5762 10.7804 34.9463 10.2144 34.9463 9.58926V7.13998H41.6863V18.5866C41.6863 19.0308 41.8739 19.4542 42.2031 19.7532L45.7974 23.0184H42.21C41.3366 23.0184 40.6276 23.7244 40.6276 24.5964V44.3363H31.8146V32.4097C31.8146 31.5378 31.1056 30.8317 30.2322 30.8317H20.3273C19.4539 30.8317 18.7449 31.5377 18.7449 32.4097V44.3363H9.9312V24.5964C9.9312 23.7245 9.22232 23.0184 8.34878 23.0184H4.76207L25.2798 4.38025L32.2983 10.7559L32.3992 10.6448L32.2983 10.7559C32.7616 11.1766 33.4302 11.285 34.003 11.0329Z" fill="#EF7F2F" stroke="#EF7F2F" stroke-width="0.3"/>
</svg>
