<svg width="50" height="50" viewBox="0 0 50 50" fill="none" xmlns="http://www.w3.org/2000/svg">
<path d="M13.5524 26.9939C14.6537 28.1896 15.6291 29.2279 16.6045 30.2663C17.8788 28.9762 19.0115 27.8277 20.0971 26.7421C19.1531 25.2003 18.0991 23.6742 17.2338 22.0379C15.3302 18.4193 14.6222 14.5018 14.6537 10.427C14.6537 9.95497 14.8582 9.79764 15.2515 9.67177C21.3084 7.65794 27.3497 5.64411 33.4066 3.63028C36.7261 2.52897 40.0614 1.42766 43.3652 0.294876C46.7948 -0.869369 50.2245 1.55352 49.9885 5.10919C49.9256 6.10037 49.5322 7.09155 49.2176 8.05127C46.2756 16.9247 43.3022 25.7981 40.3446 34.6873C40.1872 35.1593 39.9984 35.3481 39.4793 35.3481C33.5954 35.3953 28.2936 33.7276 23.6526 30.0303C23.5267 29.9359 23.4008 29.8573 23.3064 29.7943C22.158 30.9586 21.041 32.0756 19.8296 33.3028C20.8207 34.2468 21.8748 35.2537 22.9918 36.3078C21.5759 37.7081 20.2701 38.9982 18.9801 40.2883C16.337 42.9157 13.7412 45.5746 11.0667 48.1548C8.14049 50.9868 3.51519 50.4833 1.1868 47.1636C-0.66961 44.5205 -0.323499 41.0907 2.05208 38.6992C5.51319 35.2222 8.97431 31.761 12.4354 28.284C12.7973 27.9221 13.1276 27.4816 13.5524 26.9939ZM37.261 15.9807C33.6269 19.5836 29.9927 23.1865 26.3271 26.8208C29.4893 29.2909 33.0448 30.7226 37.0722 31.0372C37.1509 30.8484 37.2138 30.7226 37.261 30.5653C40.0614 22.1638 42.8775 13.7624 45.6621 5.34518C45.7565 5.07772 45.7093 4.60573 45.5362 4.4484C45.3632 4.27534 44.9069 4.27534 44.6238 4.354C37.5757 6.68249 30.5276 9.02672 23.4952 11.3709C21.9849 11.8744 20.4904 12.3779 18.9643 12.897C19.2947 16.9876 20.7263 20.559 23.3064 23.8C26.9878 20.1028 30.5905 16.4842 34.1618 12.897C35.1529 13.8882 36.1126 14.8479 37.261 15.9807ZM13.5367 33.114C10.6577 35.9932 7.76291 38.8723 4.89963 41.7829C3.93996 42.7584 3.97143 44.1743 4.86817 45.1026C5.78064 46.0308 7.21228 46.0938 8.17196 45.1341C11.0982 42.2549 13.9772 39.3286 16.8562 36.4494C15.7707 35.3481 14.6851 34.2625 13.5367 33.114Z" fill="#EF7F2F"/>
</svg>
