<svg width="50" height="50" viewBox="0 0 50 50" fill="none" xmlns="http://www.w3.org/2000/svg">
<path d="M50 50C48.9686 50 47.9862 50 47.0203 50C46.6765 50 46.3327 50 45.8906 50C45.8906 49.2804 45.8906 48.6426 45.8906 47.9066C45.5141 47.9066 45.2194 47.9066 44.9247 47.9066C41.1919 47.9066 37.4427 47.9066 33.7099 47.9066C25.5239 47.8902 18.9424 42.7221 17.076 34.79C16.8304 33.7433 16.7485 32.6311 16.6994 31.5517C16.6339 30.1125 16.683 28.6733 16.683 27.1359C15.9954 27.1359 15.3569 27.1359 14.6365 27.1359C14.6365 25.7294 14.6365 24.4047 14.6365 22.9818C15.2751 22.9491 15.9299 22.9164 16.6667 22.8836C16.6667 22.115 16.7158 21.379 16.6503 20.643C16.5684 19.7108 15.7498 18.8276 14.833 18.8276C11.313 18.7949 7.80943 18.8113 4.19123 18.8113C4.19123 19.4982 4.19123 20.136 4.19123 20.872C2.88147 20.872 1.65357 20.9047 0.442045 20.8393C0.294697 20.8393 0.0327459 20.4141 0.0327459 20.1687C1.99804e-06 18.4024 0 16.6197 0 14.8534C0 10.1923 0.016372 5.53115 0 0.870013C0 0.183109 0.196467 -0.0295036 0.867717 0.00320612C1.94827 0.0522707 3.02881 0.0195607 4.17485 0.0195607C4.17485 0.755529 4.17485 1.36066 4.17485 2.09663C4.53504 2.09663 4.81336 2.09663 5.10806 2.09663C8.87361 2.09663 12.6392 2.09663 16.4047 2.09663C24.5416 2.11298 31.1886 7.36289 32.9895 15.2786C33.2678 16.5216 33.3006 17.8136 33.3497 19.0893C33.4152 20.3323 33.3661 21.5753 33.3661 22.9164C34.1028 22.9164 34.7413 22.9164 35.4126 22.9164C35.4126 24.3392 35.4126 25.6476 35.4126 27.0705C34.7413 27.0705 34.1028 27.0705 33.3825 27.0705C33.3825 27.9046 33.317 28.6733 33.3988 29.4092C33.4807 30.3415 34.332 31.1592 35.2652 31.1756C38.7525 31.2083 42.2397 31.1919 45.8251 31.1919C45.8251 30.5541 45.8251 29.9326 45.8251 29.2457C47.2659 29.2457 48.592 29.2457 50 29.2457C50 36.1474 50 43.0001 50 50ZM29.2076 22.8836C29.2076 21.5262 29.224 20.2015 29.2076 18.8767C29.1421 11.4025 23.1009 6.26712 16.814 6.31618C12.7701 6.33254 8.74263 6.31618 4.69876 6.31618C4.55141 6.31618 4.40406 6.36524 4.25671 6.39795C4.25671 9.12922 4.25671 11.8278 4.25671 14.5917C4.60052 14.5917 4.89522 14.5917 5.17354 14.5917C8.2351 14.5917 11.2803 14.5917 14.3418 14.5917C18.2875 14.5917 20.9398 17.601 20.8415 21.0846C20.8251 21.6734 20.8415 22.2622 20.8415 22.9C23.6411 22.8836 26.3425 22.8836 29.2076 22.8836ZM20.8415 27.1359C20.8415 28.2971 20.8088 29.3929 20.8579 30.4723C20.8906 31.4699 20.9398 32.4839 21.0871 33.4816C21.8566 38.846 26.9646 43.5071 32.4001 43.6543C36.7387 43.7688 41.0773 43.7034 45.3995 43.7197C45.5304 43.7197 45.6451 43.6707 45.776 43.6543C45.776 40.8903 45.776 38.1918 45.776 35.4278C42.4362 35.4278 39.1781 35.3788 35.9037 35.4442C31.9908 35.5096 28.9948 32.5821 29.2076 28.7387C29.2403 28.2153 29.2076 27.6756 29.2076 27.1359C26.3752 27.1359 23.6739 27.1359 20.8415 27.1359Z" fill="#EF7F2F"/>
</svg>
