<svg width="50" height="50" viewBox="0 0 50 50" fill="none" xmlns="http://www.w3.org/2000/svg">
<path d="M48.6247 10.2179C48.4211 10.1873 48.2276 10.1669 48.0545 10.1669H47.9832C47.4435 10.1669 46.9037 10.1873 46.3538 10.1873C44.8365 10.1873 43.2581 10.1873 41.7102 10.2179C41.2723 10.228 41.201 10.1568 41.089 9.8818C40.8548 9.28098 40.5493 8.73108 40.2438 8.19136L40.1623 8.04879C39.5106 6.86751 38.4311 6.20559 37.0462 6.15467C36.5778 6.13431 36.15 6.12412 35.702 6.15467C33.5838 6.32779 31.486 5.99174 29.2864 5.14651C27.4229 4.42349 25.3658 4.08744 22.9931 4.10781C21.6998 4.11799 20.3963 4.11799 19.1234 4.11799C18.5531 4.11799 17.9726 4.11799 17.4024 4.11799C16.1091 4.11799 14.8158 4.11799 13.5225 4.11799C10.3555 4.11799 7.08657 4.11799 3.85843 4.11799C1.61808 4.11799 0.039648 5.61495 0.0192812 7.74329C-0.0112691 10.6557 -0.00108564 13.4969 0.0192812 15.9002C0.0294646 17.0815 0.538635 18.11 1.49588 18.8127C2.14762 19.2913 2.90119 19.5459 3.81769 19.5459C3.82788 19.5459 3.83806 19.5459 3.83806 19.5459C4.92769 19.444 6.03768 19.5153 7.11712 19.5153C7.37171 19.5153 7.62629 19.5051 7.88088 19.5051L7.77904 20.1772C7.26987 23.4665 6.75052 26.8779 6.22098 30.2181C6.2108 30.2486 6.15988 30.2996 6.09878 30.3505C5.11099 31.1142 4.05192 31.9187 2.98266 32.6927C2.33092 33.1611 2.02541 33.7721 2.02541 34.5664C2.0356 36.0939 2.0356 37.6418 2.0356 39.1388C2.0356 40.1062 2.0356 41.0736 2.0356 42.041C2.04578 44.4545 3.54274 45.9617 5.95621 45.9617C8.50207 45.9617 11.0785 45.9617 13.6549 45.9617C16.3127 45.9617 18.9808 45.9617 21.6387 45.9617C24.0521 45.9617 25.5593 44.4545 25.5593 42.041C25.5593 41.2264 25.5593 40.4219 25.5593 39.6072C25.5593 37.9677 25.5491 36.2772 25.5695 34.6173C25.5797 33.6194 25.1418 32.9574 24.2253 32.5807C23.0949 32.1122 21.9442 31.6234 20.8444 31.1448C20.1112 30.8291 19.3576 30.5032 18.6142 30.1875C18.604 30.1875 18.5938 30.1774 18.5938 30.1774C18.7975 28.9757 18.9706 27.7537 19.1437 26.5724C19.7751 26.4808 20.2435 26.0531 20.4065 25.4115L20.4574 25.2079C20.7833 23.9451 21.1193 22.6518 21.4248 21.3585C21.6183 20.5337 21.2008 19.7597 20.437 19.4848C20.488 19.4848 20.5389 19.4848 20.5898 19.4848H21.3535C21.934 19.4848 22.5043 19.4848 23.0847 19.4848C25.0196 19.495 26.7609 19.2404 28.4208 18.7414C29.0217 18.5581 29.6225 18.3544 30.2029 18.1711C30.763 17.9878 31.3333 17.7943 31.9036 17.6212C32.2192 17.5194 32.5451 17.4685 32.8404 17.4685C33.8486 17.4481 34.8771 17.4786 35.8751 17.4786C36.1806 17.4786 36.4963 17.5092 36.8018 17.5092C36.8018 17.5092 36.8018 17.5092 36.812 17.5092C38.421 17.5092 39.592 16.7658 40.2845 15.3401C40.4067 15.0957 40.5289 14.8411 40.6511 14.6069C40.8446 14.2301 41.0381 13.833 41.2214 13.4358C41.2316 13.4155 41.2418 13.3951 41.2519 13.3849C41.2723 13.3849 41.2927 13.3747 41.3334 13.3747C43.1664 13.3849 45.0198 13.3849 46.8223 13.3849H48.0137H48.085C48.2581 13.3849 48.4618 13.3849 48.6655 13.3442C49.4292 13.2118 49.9893 12.5499 49.9995 11.7963C50.0199 11.0122 49.419 10.3299 48.6247 10.2179ZM37.4433 13.9959C37.3211 14.2301 37.1786 14.3421 36.9342 14.3421L36.3741 14.3116C35.5085 14.3116 34.6225 14.2912 33.7366 14.3014C33.7468 13.7108 33.7468 13.11 33.7366 12.5397C33.7366 12.2953 33.7366 12.0407 33.7366 11.7963C33.7366 11.5519 33.7366 11.2973 33.7366 11.0529C33.7366 10.4826 33.7366 9.89199 33.7366 9.30135C34.5818 9.31153 35.4372 9.3319 36.2722 9.3319L36.8934 9.35227C37.1888 9.35227 37.3517 9.43373 37.4841 9.6985C37.6165 9.96327 37.7488 10.2179 37.8812 10.4826C38.0951 10.9001 38.3089 11.3279 38.5024 11.7556C38.5126 11.7759 38.5024 11.8268 38.5024 11.8472C38.2478 12.4073 37.9627 12.9776 37.6877 13.5173C37.5961 13.67 37.5146 13.8432 37.4433 13.9959ZM30.5899 14.0061C30.6103 14.2505 30.6306 14.6578 30.5593 14.7597C30.4881 14.8309 30.1724 14.9022 29.9789 14.9531C29.7752 15.0041 29.5716 15.055 29.3781 15.1263C27.2192 15.9613 24.8057 16.3585 22.0053 16.3381C19.5002 16.3177 16.9645 16.3075 14.4492 16.3075C12.7282 16.3075 11.0174 16.3075 9.32692 16.3177C7.61611 16.3177 5.89511 16.3279 4.1843 16.3279C3.68531 16.3279 3.38999 16.2872 3.30852 16.1955C3.21687 16.1039 3.17614 15.8086 3.17614 15.2994V13.5478C3.17614 11.7352 3.17614 9.93272 3.17614 8.12007C3.17614 7.35632 3.25761 7.26467 4.01118 7.26467C6.03768 7.26467 8.06418 7.2443 10.0907 7.2443C14.3677 7.2443 18.7975 7.31558 23.156 7.21375C23.1662 7.21375 23.1662 7.21375 23.1764 7.21375C24.8668 7.21375 26.5675 7.50907 28.2375 8.05897C28.8485 8.26264 29.4595 8.47649 30.0909 8.69034C30.2538 8.74126 30.4168 8.80236 30.5695 8.86346C30.5695 9.19952 30.5695 9.54575 30.5695 9.8818C30.5695 11.0733 30.5695 12.3055 30.5695 13.5173C30.5593 13.67 30.5797 13.8432 30.5899 14.0061ZM16.9849 20.055C16.8525 20.9003 16.7303 21.7353 16.5979 22.5805L16.1804 25.2995C15.8952 27.1223 15.6203 28.9452 15.3351 30.768C15.2028 31.603 15.5083 32.1733 16.2313 32.5807H8.45115C8.96032 32.1733 9.24546 31.654 9.35747 30.9106C9.80554 27.9268 10.2638 24.9023 10.7221 21.9797L11.0988 19.5561H17.0663L16.9849 20.055ZM22.433 39.9025C22.433 40.6154 22.4228 41.3282 22.4228 42.0309C22.4228 42.6928 22.3108 42.7946 21.659 42.7946C16.435 42.7946 11.2007 42.7946 5.97658 42.7946C5.32484 42.7946 5.21282 42.6826 5.21282 42.0309C5.21282 41.3078 5.21282 40.5848 5.21282 39.8618C5.21282 38.5176 5.21282 37.1326 5.20264 35.7681C7.38189 35.7782 9.59169 35.7782 11.7302 35.7782C13.1355 35.7782 14.5307 35.7579 15.936 35.7579C18.0643 35.7579 20.2537 35.8292 22.4228 35.7273H22.4635V35.7681C22.3617 37.153 22.433 38.5481 22.433 39.9025Z" fill="#EF7F2F"/>
</svg>
