<svg width="50" height="50" viewBox="0 0 50 50" fill="none" xmlns="http://www.w3.org/2000/svg">
<g clip-path="url(#clip0_397_4101)">
<path d="M48.1735 15.5951C46.9551 12.5797 45.1236 9.75254 42.6854 7.31465C40.2475 4.87646 37.4203 3.04492 34.4049 1.82646C31.3891 0.607617 28.1852 0 24.9826 0C21.7846 0 18.5864 0.610254 15.5769 1.83047C12.5677 3.0502 9.74727 4.88145 7.31445 7.31465C4.88135 9.74736 3.05 12.5678 1.83027 15.5771C0.610254 18.5864 0 21.7845 0 24.9825C0 28.1851 0.607617 31.389 1.82627 34.4049C3.04473 37.4203 4.87617 40.2476 7.31445 42.6854C9.75234 45.1236 12.5795 46.9552 15.5949 48.1736C18.6107 49.3924 21.8146 49.9999 25.0172 49.9999C28.2152 49.9999 31.4134 49.3896 34.423 48.1695C37.4321 46.9498 40.2525 45.1186 42.6854 42.6854C45.1186 40.2525 46.9499 37.4321 48.1696 34.423C49.3897 31.4135 50 28.2154 50.0001 25.0172C50 21.8148 49.3924 18.6108 48.1735 15.5951ZM45.0794 33.17C44.0224 35.7759 42.4406 38.2139 40.3273 40.3274C38.2138 42.4407 35.7758 44.0225 33.17 45.0793C30.5646 46.1357 27.7913 46.6653 25.0173 46.6653C22.2363 46.6653 19.4561 46.1374 16.8446 45.0819C14.2329 44.026 11.7899 42.4445 9.67266 40.3275C7.55557 38.2102 5.97402 35.7673 4.91826 33.1555C3.86279 30.544 3.33486 27.7637 3.33496 24.9827C3.33496 22.2087 3.86465 19.4354 4.921 16.8301C5.97773 14.2243 7.55947 11.7863 9.67285 9.67275C11.7864 7.55947 14.2244 5.97773 16.8303 4.9209C19.4356 3.86445 22.209 3.33486 24.983 3.33486C27.764 3.33486 30.5442 3.8627 33.1557 4.91826C35.7674 5.97422 38.2104 7.55566 40.3276 9.67266C42.4447 11.79 44.0262 14.2329 45.082 16.8446C46.1375 19.4561 46.6654 22.2363 46.6654 25.0173C46.6654 27.7912 46.1358 30.5645 45.0794 33.17Z" fill="#EF7F2F"/>
<path fill-rule="evenodd" clip-rule="evenodd" d="M14.1999 12.6499C13.3439 12.6499 12.6499 13.3439 12.6499 14.1999C12.6499 26.3225 23.6773 37.3499 35.7999 37.3499C36.656 37.3499 37.3499 36.656 37.3499 35.7999V30.9999C37.3499 28.8183 35.5815 27.0499 33.3999 27.0499H28.5999C28.0816 27.0499 27.5977 27.3089 27.3102 27.7401L25.2168 30.8803C22.886 29.32 20.8416 27.2972 19.2548 24.9828L19.1211 24.782L22.2597 22.6896C22.6909 22.4021 22.9499 21.9181 22.9499 21.3999V16.5999C22.9499 14.4184 21.1814 12.6499 18.9999 12.6499H14.1999ZM17.5837 22.0813C16.6356 20.0804 16.0204 17.9414 15.8208 15.7499H19.0001C19.4695 15.7499 19.8501 16.1305 19.8501 16.5999V20.5704L17.5837 22.0813ZM27.9194 32.4152L29.4296 30.1499H33.4001C33.8695 30.1499 34.2501 30.5304 34.2501 30.9999V34.1791C32.103 33.9837 30.0063 33.3892 28.0404 32.4735L27.9194 32.4152Z" fill="#EF7F2F"/>
</g>
<defs>
<clipPath id="clip0_397_4101">
<rect width="50" height="50" fill="white"/>
</clipPath>
</defs>
</svg>
