<svg width="50" height="50" viewBox="0 0 50 50" fill="none" xmlns="http://www.w3.org/2000/svg">
<path d="M0 50C0 47.0238 0 44.1103 0 41.0871C1.11076 41.0871 2.22152 41.0871 3.39487 41.0871C3.39487 27.3496 3.39487 13.7061 3.39487 0C17.8191 0 32.1496 0 46.5738 0C46.5738 13.6435 46.5738 27.287 46.5738 41.0244C47.7472 41.0244 48.8579 41.0244 50 41.0244C50 44.0633 50 47.0081 50 50C33.3542 50 16.724 50 0 50ZM6.42991 40.9774C18.8673 40.9774 31.2265 40.9774 43.6014 40.9774C43.6014 28.2738 43.6014 15.6172 43.6014 2.94486C31.1952 2.94486 18.836 2.94486 6.42991 2.94486C6.42991 15.6328 6.42991 28.2738 6.42991 40.9774ZM2.97247 47.0395C17.7096 47.0395 32.3686 47.0395 47.0119 47.0395C47.0119 45.99 47.0119 44.9875 47.0119 44.032C32.2904 44.032 17.6314 44.032 2.97247 44.032C2.97247 45.0501 2.97247 46.0213 2.97247 47.0395Z" fill="#EF7F2F"/>
<path d="M40.926 38.2362C30.3034 38.2362 19.712 38.2362 9.07373 38.2362C9.07373 27.3809 9.07373 16.557 9.07373 5.68604C19.6807 5.68604 30.2721 5.68604 40.926 5.68604C40.926 16.5413 40.926 27.3652 40.926 38.2362ZM26.5174 8.6309C26.5174 17.5751 26.5174 26.441 26.5174 35.2913C30.3816 35.2913 34.1676 35.2913 37.9849 35.2913C37.9849 26.3941 37.9849 17.5281 37.9849 8.6309C34.152 8.6309 30.3503 8.6309 26.5174 8.6309ZM12.0149 35.2756C15.9104 35.2756 19.6964 35.2756 23.5293 35.2756C23.5293 26.3784 23.5293 17.5125 23.5293 8.64656C19.6651 8.64656 15.8478 8.64656 12.0149 8.64656C12.0149 17.5595 12.0149 26.3941 12.0149 35.2756Z" fill="#EF7F2F"/>
<path d="M16.8179 19.1731C16.1139 18.4212 15.4881 17.7633 14.8154 17.0427C16.5207 15.4137 18.2103 13.8159 19.8373 12.2495C20.5726 12.9074 21.2766 13.534 22.0276 14.2232C20.2597 15.9149 18.5701 17.5127 16.8179 19.1731Z" fill="#EF7F2F"/>
<path d="M15.1285 14.7244C14.4401 13.9882 13.7987 13.3146 13.1104 12.5941C14.0021 11.7482 14.8313 10.965 15.723 10.1191C16.3957 10.824 17.0215 11.4976 17.7411 12.2495C16.8807 13.064 16.0359 13.8629 15.1285 14.7244Z" fill="#EF7F2F"/>
</svg>
