<svg width="50" height="50" viewBox="0 0 50 50" fill="none" xmlns="http://www.w3.org/2000/svg">
<path d="M22.0745 35.2247C22.0745 34.313 22.0994 33.4762 22.0495 32.6518C22.037 32.527 21.7248 32.3271 21.5374 32.3271C20.3509 32.3021 19.1644 32.3271 17.9779 32.3021C17.6781 32.3021 17.3409 32.2647 17.0662 32.1398C16.4417 31.89 16.1294 31.2155 16.2418 30.5536C16.3667 29.8667 16.9538 29.3796 17.7156 29.3671C18.9021 29.3421 20.0886 29.3671 21.2751 29.3546C21.5 29.3546 21.7248 29.3546 22.012 29.3546C22.012 28.3929 22.012 27.4687 22.012 26.507C19.1144 26.507 16.2418 26.507 13.2693 26.507C13.2693 26.7568 13.2693 27.0066 13.2693 27.2439C13.2693 34.1381 13.2693 41.0198 13.2693 47.9141C13.2693 48.1389 13.2818 48.3762 13.2568 48.601C13.1944 49.3754 12.5699 49.9624 11.8205 49.9624C11.0587 49.9624 10.4217 49.3878 10.3718 48.6135C10.3468 48.1014 10.3718 47.5769 10.3718 47.0023C10.122 46.9898 9.92213 46.9649 9.73479 46.9649C8.61073 46.9649 7.48667 46.9649 6.36261 46.9649C4.92631 46.9649 4.38927 46.4403 4.38927 45.0165C4.38927 38.2971 4.38927 31.5777 4.38927 24.8459C4.38927 24.5961 4.38927 24.3588 4.38927 24.159C3.71483 23.9966 3.07786 23.9341 2.51583 23.6844C-0.519128 22.348 -0.881325 18.4512 1.82891 16.3905C4.32682 14.492 6.83722 12.6061 9.34762 10.7077C13.644 7.46042 17.9529 4.21314 22.2493 0.965858C23.4983 0.0166525 24.8846 -0.258117 26.3709 0.253954C26.8705 0.428808 27.3575 0.703578 27.7822 1.02831C34.5765 6.12404 41.3583 11.2448 48.1152 16.3655C50.8379 18.4263 50.5132 22.298 47.5032 23.6719C46.9162 23.9341 46.2293 23.9966 45.4799 24.1839C45.4799 24.3338 45.4799 24.5836 45.4799 24.8209C45.4799 31.5653 45.4799 38.3096 45.4799 45.054C45.4799 46.4653 44.9803 46.9774 43.569 46.9774C41.808 46.9774 40.0344 46.9774 38.161 46.9774C38.161 47.427 38.161 47.8391 38.161 48.2513C38.1485 49.3254 37.5865 49.9873 36.7122 49.9873C35.813 49.9873 35.2385 49.3254 35.2385 48.2638C35.2385 47.0773 35.2385 45.8908 35.2385 44.7043C35.2385 44.5044 35.2135 44.3046 35.2135 44.0673C34.2643 44.0673 33.3525 44.0673 32.3783 44.0673C32.3659 44.3046 32.3284 44.5169 32.3284 44.7417C32.3284 45.9282 32.3284 47.1147 32.3284 48.3013C32.3159 49.3379 31.7039 50.0123 30.8172 49.9998C29.9554 49.9748 29.3809 49.3129 29.3809 48.3013C29.3809 47.8891 29.3809 47.4769 29.3809 47.0273C27.9071 47.0273 26.4958 47.0273 25.0095 47.0273C25.0095 47.4894 25.0095 47.9391 25.0095 48.3887C24.997 49.3504 24.41 49.9998 23.5482 49.9998C22.6989 49.9998 22.0994 49.3504 22.087 48.4012C22.0745 47.1272 22.062 45.8658 22.087 44.5919C22.0994 44.1547 21.9371 44.0173 21.5124 44.0298C20.301 44.0548 19.102 44.0423 17.8905 44.0298C16.8663 44.0173 16.2294 43.4553 16.2294 42.5685C16.2294 41.6818 16.8663 41.1198 17.8905 41.1198C19.2643 41.1198 20.6257 41.1198 22.062 41.1198C22.062 40.208 22.0745 39.3587 22.037 38.5094C22.037 38.397 21.7373 38.2097 21.5749 38.1972C20.8255 38.1597 20.0761 38.1847 19.3268 38.1847C18.3276 38.1722 17.6532 37.5727 17.6657 36.7234C17.6657 35.8617 18.3401 35.2747 19.3393 35.2622C20.226 35.2247 21.1003 35.2247 22.0745 35.2247ZM42.5698 43.9799C42.5698 43.6926 42.5698 43.4678 42.5698 43.243C42.5698 36.5985 42.5698 29.9666 42.5823 23.3222C42.5823 22.86 42.4449 22.5603 42.0702 22.2855C36.5374 18.114 31.0045 13.9425 25.4841 9.7585C25.1219 9.48373 24.8846 9.48373 24.5099 9.7585C18.9895 13.9425 13.4567 18.1265 7.92381 22.2855C7.49916 22.6102 7.3368 22.935 7.3368 23.472C7.36178 30.054 7.34929 36.6235 7.34929 43.2055C7.34929 43.3679 7.32431 43.5427 7.36178 43.7051C7.39925 43.8175 7.51165 43.9799 7.59908 43.9924C8.49833 44.0173 9.41006 44.0048 10.3593 44.0048C10.3593 43.6676 10.3593 43.4178 10.3593 43.168C10.3593 37.2355 10.3593 31.303 10.3593 25.3704C10.3593 24.0341 10.8713 23.522 12.2077 23.522C15.8297 23.522 19.4517 23.522 23.0736 23.522C24.4725 23.522 24.9845 24.0341 24.9845 25.4454C24.9845 31.3779 24.9845 37.3104 24.9845 43.243C24.9845 43.4803 24.9845 43.7301 24.9845 43.9799C26.4833 43.9799 27.8821 43.9799 29.256 43.9799C29.3059 43.9174 29.3309 43.9049 29.3309 43.8924C29.3309 41.6193 29.5182 39.3587 30.1927 37.1731C30.2426 37.0357 30.1053 36.7734 29.9804 36.6485C27.7197 34.5128 27.4075 31.2031 29.0187 28.3929C30.0928 26.532 31.7164 25.1831 33.3151 23.8342C34.1144 23.1598 35.226 23.6594 35.5882 24.6835C35.813 25.3205 36.1377 25.9325 36.5249 26.482C36.8871 26.9816 37.3742 27.3937 37.8363 27.8184C40.7963 30.5911 39.9345 34.7626 37.6364 36.7234C37.3492 36.9732 37.2992 37.1856 37.4116 37.5353C37.9862 39.3962 38.211 41.3196 38.161 43.268C38.1485 43.5053 38.161 43.7426 38.161 44.0048C39.6722 43.9799 41.0586 43.9799 42.5698 43.9799ZM24.997 5.97417C25.4217 6.19898 25.8088 6.34885 26.1336 6.58616C30.9171 10.1831 35.7006 13.8051 40.4841 17.4146C41.9953 18.5511 43.5065 19.7002 45.0178 20.8367C45.5049 21.1989 46.0169 21.2364 46.5165 20.8742C46.9911 20.5245 47.1785 20.0249 46.9661 19.5004C46.8288 19.1631 46.529 18.8384 46.2293 18.6136C39.5598 13.5553 32.8904 8.52204 26.2085 3.47626C25.2343 2.73938 24.7722 2.73937 23.8105 3.46377C17.1161 8.52204 10.4217 13.5678 3.73981 18.6261C3.58993 18.7385 3.44006 18.8509 3.31516 18.9883C2.86554 19.4629 2.84056 20.1498 3.22774 20.6369C3.6274 21.1365 4.28935 21.2614 4.85138 20.9242C5.05121 20.8118 5.22607 20.6619 5.41341 20.5245C11.5583 15.8784 17.7031 11.2448 23.848 6.61113C24.1727 6.36134 24.5849 6.19898 24.997 5.97417ZM33.44 27.4562C32.7905 28.293 32.1036 29.0798 31.5415 29.9291C31.0045 30.7285 30.8671 31.6652 31.0045 32.6269C31.2543 34.313 32.828 35.4995 34.3892 35.1747C36.5623 34.7251 37.549 31.9774 36.1002 30.2539C35.3259 29.3171 34.4266 28.4803 33.44 27.4562ZM32.3409 41.0573C33.3275 41.0573 34.2018 41.0573 35.176 41.0573C35.0761 40.4578 35.0011 39.8833 34.8763 39.3338C34.589 38.0723 34.5765 38.0598 33.3151 38.1472C33.1777 38.1597 32.9654 38.2971 32.9279 38.422C32.7156 39.2713 32.5407 40.1331 32.3409 41.0573Z" fill="#EF7F2F"/>
</svg>
