<svg width="50" height="50" viewBox="0 0 50 50" fill="none" xmlns="http://www.w3.org/2000/svg">
<path d="M50 0H0.0166621C0.0166621 0.166611 0 0.199934 0 0.299901V10.13C0 23.0756 0.0166611 36.4379 0 49.6001C0 49.9 0.0499864 49.95 0.0499864 49.95C0.0499864 49.95 0.116629 50 0.43319 50C2.98234 49.9833 5.56481 49.9833 8.06398 49.9833C9.21359 49.9833 10.3465 49.9833 11.4795 49.9833C11.5961 49.9833 11.6628 49.9667 11.8294 49.9667V46.6511H3.49883V30.9897H16.9943V32.989H20.3266V27.4908H3.5155V3.49883H27.5075V10.6631H25.5082V13.8287H31.0063V3.49883H46.6678V12.6624H40.3366V16.1613H46.6678V27.4908H31.0063V21.1596H27.5075V46.6511H19.1769V49.9833H31.0063V30.8231H50V0Z" fill="#EF7F2F"/>
</svg>
