<svg width="52" height="52" viewBox="0 0 52 52" fill="none" xmlns="http://www.w3.org/2000/svg">
<path fill-rule="evenodd" clip-rule="evenodd" d="M24.9522 1.0647C24.7371 1.1113 24.329 1.24116 24.0454 1.35314C23.2197 1.6792 2.55534 15.1737 1.9596 15.7759C1.28494 16.4577 1.00506 17.17 1.00007 18.2177C0.997627 18.7168 1.05777 19.1761 1.16641 19.488C1.52149 20.5082 2.47183 21.413 3.54234 21.7502L4.07384 21.9176V35.4329V48.9481H3.33287C2.64433 48.9481 2.57167 48.9683 2.30607 49.2337C1.84088 49.6985 1.94239 50.5033 2.5082 50.8373C2.76324 50.9879 4.51351 51 25.979 51C47.4445 51 49.1948 50.9879 49.4498 50.8373C50.0156 50.5033 50.1171 49.6985 49.6519 49.2337C49.3863 48.9683 49.3137 48.9481 48.6251 48.9481H47.8842V35.377V21.806L48.2463 21.7381C50.1687 21.3777 51.4421 19.1579 50.8565 17.1878C50.5414 16.1273 49.83 15.3944 47.982 14.2262L46.8574 13.5153L46.8085 9.12435C46.7731 5.94296 46.7269 4.67661 46.6411 4.52701C46.4044 4.11467 46.1511 4.08956 42.5276 4.11907L39.0872 4.14721L38.8162 4.41787C38.5452 4.68843 38.5451 4.68912 38.4962 6.38764L38.4473 8.08675L33.4021 4.79787C29.9741 2.56311 28.1561 1.4362 27.7302 1.28191C27.035 1.03001 25.6221 0.919594 24.9522 1.0647ZM27.0547 3.27298C27.2967 3.35545 32.2234 6.50988 38.0031 10.2829C46.1807 15.6213 48.5528 17.2142 48.6981 17.4644C49.4323 18.7289 48.1176 20.2603 46.7809 19.6974C46.6078 19.6246 42.2636 16.8241 37.1272 13.4744C25.1554 5.66682 26.237 6.34152 25.8644 6.44822C25.2786 6.61609 24.2233 7.28415 15.2709 13.1537C11.8287 15.4106 8.22017 17.7763 7.25204 18.4109C6.28391 19.0453 5.3502 19.6242 5.17711 19.6973C4.73911 19.882 4.32633 19.863 3.88422 19.6376C3.41424 19.398 3.10502 18.9111 3.03324 18.2977C2.98787 17.9097 3.01544 17.7797 3.1903 17.5588C3.62146 17.0141 5.39372 15.7976 11.5548 11.8173C13.3297 10.6706 16.9602 8.31931 19.6226 6.59205C22.285 4.86471 24.5277 3.41271 24.6064 3.36542C25.1643 3.02978 26.2237 2.98981 27.0547 3.27298ZM44.7549 9.17546V12.2007L42.6524 10.8247L40.5499 9.44885V7.86465C40.5499 6.99345 40.5792 6.25124 40.6151 6.21547C40.6509 6.17961 41.597 6.1503 42.7176 6.1503H44.7549V9.17546ZM35.541 14.9343C40.8077 18.3683 45.2511 21.2472 45.4151 21.3319L45.7131 21.486L45.7772 22.5878C45.8123 23.1938 45.8277 29.3617 45.8114 36.2944L45.7817 48.8992H25.979H6.17634L6.14681 36.099C6.13058 29.0588 6.14583 22.8908 6.18064 22.3921L6.24392 21.4855L6.60124 21.2989C6.7978 21.1963 11.2272 18.3221 16.4444 14.9118C21.6615 11.5015 25.938 8.70664 25.9476 8.70107C25.9573 8.6954 30.2743 11.5004 35.541 14.9343ZM32.1623 17.8772C29.985 18.4472 28.1661 20.1395 27.4379 22.2727C27.2644 22.7811 27.2084 23.2296 27.1576 24.5201C27.1159 25.5779 27.0487 26.2149 26.9624 26.3723C26.7935 26.68 22.3229 31.2647 21.2087 32.2728C20.0007 33.3658 19.958 33.382 18.1557 33.4345C16.8449 33.4725 16.543 33.5126 15.9227 33.7314C14.8838 34.0977 14.2001 34.5357 13.3665 35.3687C12.5361 36.1983 12.0986 36.8787 11.7239 37.9227C11.4923 38.5682 11.4662 38.7802 11.4618 40.0563C11.4576 41.2937 11.4859 41.5565 11.6847 42.1316C11.9557 42.9154 12.2413 43.1831 12.8071 43.1831C13.183 43.1831 13.2656 43.1197 14.5544 41.8437L15.9071 40.5045L16.3703 40.6283C17.1907 40.8476 17.2856 40.9303 17.4918 41.6078L17.6816 42.2312L16.3676 43.5621C14.9289 45.0194 14.8121 45.2254 15.0958 45.8054C15.3043 46.2316 15.7128 46.4538 16.6535 46.6529C18.1407 46.9677 19.6691 46.7732 21.0895 46.0882C21.7586 45.7655 22.0844 45.5242 22.7608 44.8505C24.2337 43.3831 24.6886 42.2679 24.7954 39.8609C24.8478 38.6849 24.9025 38.2699 25.0404 38.0043C25.1381 37.8162 26.5884 36.2954 28.2633 34.6247C31.9169 30.9802 31.7879 31.0668 33.5613 31.0668C34.4232 31.0668 34.9557 31.0139 35.503 30.8741C38.4694 30.1161 40.5522 27.4249 40.5491 24.3543C40.5482 23.4928 40.2869 22.2663 39.9991 21.7727C39.7614 21.3649 39.2201 21.1507 38.8158 21.3042C38.669 21.36 37.9665 21.9819 37.2546 22.6863L35.9603 23.9668L35.3691 23.788C35.0439 23.6896 34.7393 23.5612 34.6922 23.5027C34.6451 23.4443 34.527 23.1419 34.4298 22.8308L34.2531 22.2651L35.3314 21.1697C36.7889 19.689 36.9316 19.5008 36.9316 19.059C36.9316 18.5015 36.42 18.0799 35.4203 17.814C34.6928 17.6203 33.0194 17.6528 32.1623 17.8772ZM33.0041 20.4895C32.1616 21.3461 32.042 21.5352 32.042 22.01C32.042 22.5269 32.8937 24.9283 33.148 25.1286C33.4574 25.3722 35.9359 26.1812 36.3728 26.1812C36.7048 26.1812 36.8342 26.0935 37.6341 25.3262L38.5254 24.4713L38.4595 25.0575C38.3062 26.423 37.2262 27.8993 35.9343 28.5093C35.1064 28.9002 34.4569 29.0137 33.1177 29.001C31.8681 28.9892 31.2339 29.1503 30.3875 29.6946C30.1411 29.8531 28.4821 31.4469 26.7006 33.2363C23.8164 36.1335 23.4293 36.5594 23.1653 37.1249C22.7647 37.9831 22.6239 38.736 22.7029 39.5968C22.9154 41.9111 21.4366 44.0091 19.1784 44.5968C18.0316 44.8953 18.0215 44.8466 19.0179 43.8314C20.1003 42.7284 20.0929 42.7736 19.4897 40.9768C18.9753 39.4443 18.9037 39.322 18.4022 39.1178C17.3646 38.6953 16.0205 38.2975 15.6303 38.2975C15.2176 38.2975 15.1545 38.3385 14.3165 39.1524L13.436 40.0074L13.5026 39.4834C13.7143 37.8185 14.9218 36.3314 16.5422 35.7402C17.0273 35.5631 17.3756 35.5216 18.5533 35.4999C20.0594 35.4722 20.5793 35.3647 21.3339 34.9249C21.5491 34.7994 23.2928 33.1216 25.2087 31.1963C29.3588 27.0261 29.0972 27.4371 29.2093 24.911C29.2889 23.1196 29.4027 22.6503 29.9615 21.8074C30.5724 20.8859 31.6504 20.14 32.7593 19.8713C33.8095 19.6167 33.8247 19.6551 33.0041 20.4895Z" fill="#EF7F2F" stroke="#EF7F2F" stroke-width="0.3"/>
</svg>
