<svg width="50" height="50" viewBox="0 0 50 50" fill="none" xmlns="http://www.w3.org/2000/svg">
<path d="M3.42614 26.1743H6.76647V45.9142C6.76647 46.7861 7.47534 47.4922 8.34888 47.4922L25.2795 47.4923L42.21 47.4923C43.0835 47.4923 43.7925 46.7863 43.7924 45.9143V26.1744H47.1334C48.2345 26.1744 49.2045 25.5122 49.6025 24.488L49.6025 24.488C50.0003 23.4636 49.7309 22.3225 48.9165 21.5827L44.8509 17.8896V5.56198C44.8509 4.69011 44.142 3.98397 43.2685 3.98397H33.3637C32.4903 3.98397 31.7813 4.69 31.7813 5.56198V6.01726L27.0628 1.73104C26.0464 0.807599 24.5126 0.807676 23.4966 1.73094C23.4966 1.73095 23.4965 1.73095 23.4965 1.73096L1.64286 21.5828L1.74372 21.6938L1.64285 21.5828C0.828696 22.3225 0.559178 23.4636 0.95709 24.4879L0.957095 24.4879C1.35508 25.5122 2.32497 26.1743 3.42614 26.1743ZM34.003 11.0329L34.0031 11.0329C34.5762 10.7804 34.9463 10.2144 34.9463 9.58926V7.13998H41.6863V18.5866C41.6863 19.0308 41.8739 19.4542 42.2031 19.7532L45.7974 23.0184H42.21C41.3366 23.0184 40.6276 23.7244 40.6276 24.5964V44.3363H40.5613H40.4539H40.3469H40.2405H40.1344H40.0289H39.9238H39.8192H39.7151H39.6114H39.5082H39.4054H39.3031H39.2013H39.0999H38.9989H38.8984H38.7984H38.6988H38.5997H38.501H38.4027H38.3049H38.2075H38.1106H38.0141H37.918H37.8224H37.7272H37.6324H37.538H37.4441H37.3506H37.2575H37.1649H37.0726H36.9808H36.8894H36.7984H36.7078H36.6176H36.5279H36.4385H36.3496H36.261H36.1728H36.0851H35.9977H35.9108H35.8242H35.7381H35.6523H35.5669H35.4819H35.3973H35.313H35.2292H35.1457H35.0626H34.9799H34.8976H34.8156H34.734H34.6528H34.572H34.4915H34.4114H34.3316H34.2522H34.1732H34.0945H34.0162H33.9383H33.8606H33.7834H33.7065H33.6299H33.5537H33.4779H33.4023H33.3271H33.2523H33.1778H33.1036H33.0298H32.9563H32.8831H32.8103H32.7378H32.6656H32.5937H32.5222H32.451H32.3801H32.3095H32.2392H32.1693H32.0997H32.0303H31.9613H31.8926H31.8242H31.7561H31.6883H31.6208H31.5536H31.4867H31.4201H31.3538H31.2877H31.222H31.1566H31.0914H31.0265H30.9619H30.8976H30.8336H30.7698H30.7064H30.6432H30.5802H30.5176H30.4552H30.3931H30.3312H30.2696H30.2083H30.1472H30.0864H30.0259H29.9656H29.9056H29.8458H29.7862H29.727H29.6679H29.6091H29.5506H29.4923H29.4342H29.3764H29.3188H29.2614H29.2043H29.1474H29.0907H29.0343H28.9781H28.9221H28.8664H28.8108H28.7555H28.7004H28.6455H28.5909H28.5364H28.4822H28.4281H28.3743H28.3207H28.2673H28.2141H28.161H28.1082H28.0556H28.0032H27.951H27.8989H27.8471H27.7955H27.744H27.6927H27.6416H27.5907H27.54H27.4894H27.439H27.3888H27.3388H27.2889H27.2393H27.1897H27.1404H27.0912H27.0422H26.9933H26.9446H26.8961H26.8477H26.7994H26.7514H26.7034H26.6557H26.608H26.5605H26.5132H26.466H26.419H26.372H26.3253H26.2786H26.2321H26.1857H26.1395H26.0934H26.0474H26.0015H25.9558H25.9101H25.8647H25.8193H25.774H25.7289H25.6838H25.6389H25.5941H25.5494H25.5048H25.4603H25.4159H25.3716H25.3274H25.2834H25.2394H25.1955H25.1517H25.108H25.0643H25.0208H24.9774H24.934H24.8907H24.8475H24.8044H24.7613H24.7184H24.6755H24.6327H24.5899H24.5472H24.5046H24.4621H24.4196H24.3772H24.3348H24.2925H24.2503H24.2081H24.1659H24.1239H24.0818H24.0398H23.9979H23.956H23.9142H23.8723H23.8306H23.7888H23.7472H23.7055H23.6639H23.6223H23.5807H23.5392H23.4977H23.4562H23.4147H23.3733H23.3318H23.2904H23.2491H23.2077H23.1663H23.125H23.0836H23.0423H23.001H22.9596H22.9183H22.877H22.8357H22.7943H22.753H22.7117H22.6703H22.629H22.5876H22.5462H22.5048H22.4634H22.422H22.3805H22.3391H22.2976H22.2561H22.2145H22.1729H22.1313H22.0897H22.048H22.0063H21.9646H21.9228H21.881H21.8391H21.7972H21.7552H21.7132H21.6712H21.6291H21.5869H21.5447H21.5025H21.4601H21.4177H21.3753H21.3328H21.2902H21.2476H21.2049H21.1621H21.1193H21.0763H21.0334H20.9903H20.9471H20.9039H20.8606H20.8172H20.7737H20.7302H20.6865H20.6428H20.5989H20.555H20.511H20.4668H20.4226H20.3783H20.3339H20.2893H20.2447H20.2H20.1551H20.1102H20.0651H20.0199H19.9746H19.9292H19.8836H19.838H19.7922H19.7463H19.7002H19.6541H19.6078H19.5614H19.5148H19.4681H19.4213H19.3743H19.3272H19.28H19.2326H19.185H19.1374H19.0895H19.0415H18.9934H18.9451H18.8967H18.8481H18.7993H18.7504H18.7013H18.6521H18.6027H18.5531H18.5033H18.4534H18.4033H18.3531H18.3026H18.252H18.2012H18.1502H18.0991H18.0477H17.9962H17.9445H17.8926H17.8405H17.7882H17.7357H17.683H17.6301H17.577H17.5237H17.4703H17.4166H17.3627H17.3086H17.2542H17.1997H17.145H17.09H17.0348H16.9794H16.9238H16.868H16.8119H16.7556H16.6991H16.6424H16.5854H16.5282H16.4708H16.4131H16.3552H16.297H16.2386H16.18H16.1211H16.062H16.0026H15.943H15.8831H15.823H15.7626H15.7019H15.641H15.5799H15.5185H15.4568H15.3948H15.3326H15.2701H15.2074H15.1444H15.0811H15.0175H14.9536H14.8895H14.8251H14.7604H14.6954H14.6302H14.5646H14.4988H14.4327H14.3662H14.2995H14.2325H14.1652H14.0976H14.0297H13.9615H13.893H13.8242H13.755H13.6856H13.6158H13.5458H13.4754H13.4047H13.3337H13.2624H13.1907H13.1187H13.0464H12.9738H12.9008H12.8276H12.7539H12.68H12.6057H12.5311H12.4561H12.3808H12.3052H12.2292H12.1529H12.0762H11.9991H11.9218H11.844H11.7659H11.6875H11.6087H11.5295H11.45H11.3701H11.2899H11.2093H11.1283H11.047H10.9652H10.8831H10.8007H10.7178H10.6346H10.551H10.467H10.3826H10.2979H10.2128H10.1272H10.0413H9.955H9.9312V24.5964C9.9312 23.7245 9.22232 23.0184 8.34878 23.0184H4.76207L25.2798 4.38025L32.2983 10.7559L32.3992 10.6448L32.2983 10.7559C32.7616 11.1766 33.4302 11.285 34.003 11.0329Z" fill="#EF7F2F" stroke="#EF7F2F" stroke-width="0.3"/>
<path d="M23.3257 35.1049C22.1651 34.8406 21.1187 34.306 20.2106 33.5251C19.3085 32.7502 18.635 31.8012 18.208 30.7019C17.0233 27.6625 18.0697 24.7011 19.6212 23.0853L21.5156 25.0615V18.9946H15.3515L17.6247 21.2172C13.9743 25.2177 14.5095 30.7079 16.9271 33.9396C18.1719 35.6035 19.8678 36.8289 21.8223 37.4836C22.8566 37.832 23.9271 38.0002 24.9675 38.0002C25.6711 38.0002 26.3446 37.9221 27.0001 37.7599L27.2888 37.6878V34.9427L26.8137 35.0629C25.6109 35.3572 24.4743 35.3692 23.3257 35.1049Z" fill="#EF7F2F"/>
<path d="M33.002 22.0038C30.2838 18.3877 25.996 17.5047 22.9651 18.2376L22.6523 18.3097V21.0428L23.1455 20.9286C27.331 19.9555 30.6687 22.4003 31.7933 25.3196C32.9299 28.275 31.9556 31.3324 30.3981 32.8942L28.4857 30.948V37.0149H34.5476L32.3225 34.8224C33.9281 33.0504 34.8242 30.9961 34.9745 28.7014C35.1429 26.2266 34.4814 23.9741 33.002 22.0038Z" fill="#EF7F2F"/>
</svg>
