<svg width="50" height="50" viewBox="0 0 50 50" fill="none" xmlns="http://www.w3.org/2000/svg">
<path d="M33.9079 29.4155L26.9365 24.187V13.5364C26.9365 12.4655 26.0709 11.5999 25 11.5999C23.9291 11.5999 23.0635 12.4655 23.0635 13.5364V25.1553C23.0635 25.7653 23.3501 26.3405 23.8381 26.7045L31.584 32.514C31.9325 32.7754 32.3393 32.9013 32.7439 32.9013C33.3346 32.9013 33.9155 32.636 34.2951 32.1248C34.9382 31.2707 34.7639 30.0565 33.9079 29.4155Z" fill="#EF7F2F"/>
<path d="M25 0C11.2142 0 0 11.2142 0 25C0 38.7858 11.2142 50 25 50C38.7858 50 50 38.7858 50 25C50 11.2142 38.7858 0 25 0ZM25 46.1271C13.3521 46.1271 3.87295 36.6479 3.87295 25C3.87295 13.3521 13.3521 3.87295 25 3.87295C36.6499 3.87295 46.1271 13.3521 46.1271 25C46.1271 36.6479 36.6479 46.1271 25 46.1271Z" fill="#EF7F2F"/>
</svg>
