<svg width="50" height="50" viewBox="0 0 50 50" fill="none" xmlns="http://www.w3.org/2000/svg">
<g clip-path="url(#clip0_397_4086)">
<path d="M43.8465 12.5546L32.3624 1.3049C32.3624 1.30489 32.3624 1.30488 32.3624 1.30488C32.066 1.01449 31.6624 0.85 31.2422 0.85H11.1445C8.68994 0.85 6.68789 2.80679 6.68789 5.21875V44.7812C6.68789 47.1932 8.68994 49.15 11.1445 49.15H39.8555C42.3101 49.15 44.3121 47.1932 44.3121 44.7812V13.6562C44.3121 13.2304 44.13 12.8323 43.8465 12.5546ZM32.8277 10.8438V6.15814L38.8934 12.1H34.1133C33.4016 12.1 32.8277 11.5334 32.8277 10.8438ZM39.8555 46.0375H11.1445C10.4329 46.0375 9.85898 45.4709 9.85898 44.7812V5.21875C9.85898 4.52909 10.4329 3.9625 11.1445 3.9625H29.6566V10.8438C29.6566 13.2557 31.6587 15.2125 34.1133 15.2125H41.141V44.7812C41.141 45.4709 40.5671 46.0375 39.8555 46.0375Z" fill="#EF7F2F" stroke="#EF7F2F" stroke-width="0.3"/>
<path d="M34.1133 20.725H16.8867C16.014 20.725 15.3012 21.4189 15.3012 22.2812C15.3012 23.1436 16.014 23.8375 16.8867 23.8375H34.1133C34.986 23.8375 35.6988 23.1436 35.6988 22.2812C35.6988 21.4189 34.986 20.725 34.1133 20.725Z" fill="#EF7F2F" stroke="#EF7F2F" stroke-width="0.3"/>
<path d="M34.1133 26.35H16.8867C16.014 26.35 15.3012 27.0439 15.3012 27.9062C15.3012 28.7686 16.014 29.4625 16.8867 29.4625H34.1133C34.986 29.4625 35.6988 28.7686 35.6988 27.9062C35.6988 27.0439 34.986 26.35 34.1133 26.35Z" fill="#EF7F2F" stroke="#EF7F2F" stroke-width="0.3"/>
<path d="M34.1133 31.975H16.8867C16.014 31.975 15.3012 32.6689 15.3012 33.5312C15.3012 34.3936 16.014 35.0875 16.8867 35.0875H34.1133C34.986 35.0875 35.6988 34.3936 35.6988 33.5312C35.6988 32.6689 34.986 31.975 34.1133 31.975Z" fill="#EF7F2F" stroke="#EF7F2F" stroke-width="0.3"/>
<path d="M28.3711 37.6H16.8867C16.014 37.6 15.3012 38.2939 15.3012 39.1562C15.3012 40.0186 16.014 40.7125 16.8867 40.7125H28.3711C29.2438 40.7125 29.9566 40.0186 29.9566 39.1562C29.9566 38.2939 29.2438 37.6 28.3711 37.6Z" fill="#EF7F2F" stroke="#EF7F2F" stroke-width="0.3"/>
</g>
<defs>
<clipPath id="clip0_397_4086">
<rect width="49" height="48" fill="white" transform="translate(1 1)"/>
</clipPath>
</defs>
</svg>
