<svg width="50" height="50" viewBox="0 0 50 50" fill="none" xmlns="http://www.w3.org/2000/svg">
<path d="M28.4122 45.0821C28.6156 46.0523 28.8034 46.9443 29.0068 47.9614C28.2088 48.0866 27.4576 48.2431 26.6909 48.29C22.3876 48.603 18.3659 47.6954 14.6885 45.3638C14.266 45.0978 14.0157 45.1604 13.7027 45.5046C12.8577 46.4279 11.9814 47.3198 11.0738 48.1805C10.886 48.3683 10.4948 48.4935 10.2287 48.4309C2.71751 46.866 -1.72663 39.214 0.636274 31.8749C0.730165 31.5775 1.10573 31.2646 1.41869 31.1863C4.59532 30.3726 7.77194 29.5746 10.9486 28.8234C11.418 28.7139 11.5902 28.5261 11.6215 28.0567C11.731 26.3823 12.0909 24.7705 12.889 23.2056C13.7653 23.6125 14.6103 24.0037 15.4084 24.3949C15.111 25.5373 14.8137 26.617 14.4695 27.9315C15.6744 27.6341 16.6133 27.4151 17.5522 27.1647C17.6617 27.1334 17.74 26.9456 17.8026 26.8204C18.4129 25.772 19.0231 24.7235 19.6334 23.6751C19.7273 23.5186 19.7899 23.2839 19.743 23.1274C19.5082 22.2354 19.2422 21.3435 18.9449 20.3107C18.3033 20.8584 17.74 21.3435 17.1297 21.8599C16.4412 21.234 15.737 20.608 14.9076 19.8725C15.8622 19.1058 16.7072 18.3703 17.6148 17.6974C17.9591 17.447 18.1155 17.2593 17.9434 16.8211C17.6617 16.023 17.4583 15.1937 17.2079 14.3017C13.2332 16.4612 10.6512 19.6848 9.19595 23.9568C8.25704 23.6751 7.38074 23.4091 6.42618 23.1118C7.2086 20.4985 8.50742 18.2451 10.2287 16.2265C11.9344 14.2235 14 12.643 16.3942 11.4224C16.003 10.061 15.6587 8.73087 15.2362 7.43205C15.0641 6.88436 15.158 6.52445 15.5492 6.11759C20.7445 0.656296 29.1164 0.625 34.3586 6.03935C34.7811 6.4775 34.9063 6.86871 34.7341 7.479C33.2788 12.4708 31.8705 17.4783 30.4152 22.4702C30.2118 23.1431 30.2587 23.5969 30.7595 24.1915C31.3697 24.9113 31.6827 25.8502 32.1678 26.6796C32.3086 26.9143 32.5277 27.1803 32.7624 27.2586C33.6075 27.5246 34.4681 27.6967 35.3288 27.9158C35.454 26.4136 34.7341 24.5358 33.1224 22.2041C33.8422 21.6095 34.5777 21.0149 35.3444 20.3733C37.3631 22.8144 38.2863 25.5999 38.4585 28.7139C39.4443 28.9643 40.4302 29.199 41.5256 29.465C41.5725 26.9456 41.1343 24.6297 40.1954 22.4076C39.2409 20.1699 37.8482 18.2451 35.9704 16.5238C36.612 15.7883 37.2379 15.0841 37.8951 14.333C40.4302 16.5864 42.2141 19.2466 43.3408 22.3763C44.1388 24.5984 44.5613 26.8987 44.4205 29.2772C44.3736 30.044 44.6083 30.3257 45.3438 30.4509C46.4392 30.6543 47.5345 30.936 48.5986 31.2646C48.9116 31.3585 49.2872 31.6714 49.3811 31.9688C51.4623 38.5724 48.1448 45.4733 41.682 47.9614C41.0248 48.2118 40.3519 48.4152 39.6634 48.5248C39.3974 48.5717 38.9905 48.337 38.7714 48.1179C35.0784 44.331 31.401 40.5128 27.755 36.6946C27.3325 36.2564 26.9725 36.1312 26.3466 36.2251C25.392 36.3503 24.3906 36.2095 23.4047 36.2095C23.1387 36.2095 22.8257 36.2095 22.6379 36.366C21.9181 36.9449 21.2296 37.5865 20.5254 38.2125C20.5723 38.3377 20.6193 38.4628 20.6662 38.588C22.0746 38.901 23.4829 39.2296 24.9539 39.5582C24.9539 40.3719 24.9539 41.3265 24.9539 42.2654C23.4516 42.4688 20.8697 41.8273 18.6006 40.7006C17.8339 41.436 17.0827 42.1402 16.269 42.907C20.0559 45.223 24.0463 45.8802 28.4122 45.0821ZM22.4814 21.8442C24.2184 21.2339 25.9241 21.3435 27.5985 21.7973C28.9286 17.1497 30.243 12.6117 31.5262 8.05799C31.6045 7.79197 31.4636 7.33816 31.2445 7.15038C27.9114 4.25543 22.2154 4.25543 18.8354 7.08779C18.4911 7.36946 18.3816 7.60419 18.5224 8.07364C19.3831 10.9842 20.1968 13.9105 21.0418 16.8367C21.4956 18.4798 21.9807 20.1229 22.4814 21.8442ZM29.9457 34.6916C29.9457 34.6759 29.9457 34.7385 29.9927 34.7698C33.2945 38.2125 36.5963 41.6395 39.9294 45.0665C40.0859 45.223 40.5397 45.3012 40.7275 45.1917C41.8072 44.5814 42.9809 44.0337 43.8728 43.2043C46.3453 40.9353 47.3468 38.0247 47.0651 34.6759C47.0181 34.0969 46.7834 33.784 46.1575 33.6431C42.8713 32.8607 39.6008 32.0157 36.3146 31.202C35.0315 30.889 33.7483 30.5604 32.5121 30.2631C32.1522 31.1081 31.9174 31.9218 31.4949 32.626C31.0724 33.3458 30.4934 33.9874 29.9457 34.6916ZM17.6304 30.2474C17.4427 30.2787 17.3175 30.2944 17.1923 30.3257C12.7012 31.4367 8.2101 32.5477 3.70336 33.6275C3.15566 33.7527 3.04613 34.1282 2.98353 34.5664C2.34195 38.8697 5.08042 43.5329 9.149 45.1291C9.64975 45.3325 9.93142 45.223 10.2913 44.8474C12.3569 42.6723 14.4538 40.5284 16.535 38.3846C17.74 37.1327 18.9449 35.8965 20.1811 34.629C18.8197 33.4241 18.0216 31.9531 17.6304 30.2474ZM25.0947 24.3636C22.5597 24.348 20.4784 26.3666 20.4784 28.8704C20.4628 31.3428 22.4971 33.4084 24.9695 33.4397C27.4576 33.471 29.5389 31.4524 29.5702 28.9956C29.6015 26.4605 27.5985 24.3949 25.0947 24.3636Z" fill="#EF7F2F"/>
</svg>
