<svg width="50" height="50" viewBox="0 0 50 50" fill="none" xmlns="http://www.w3.org/2000/svg">
<g clip-path="url(#clip0_397_4095)">
<path d="M48.1735 15.5951C46.9551 12.5797 45.1236 9.75254 42.6854 7.31465C40.2475 4.87646 37.4203 3.04492 34.4049 1.82646C31.3891 0.607617 28.1852 0 24.9826 0C21.7846 0 18.5864 0.610254 15.5769 1.83047C12.5677 3.0502 9.74727 4.88145 7.31445 7.31465C4.88135 9.74736 3.05 12.5678 1.83027 15.5771C0.610254 18.5864 0 21.7845 0 24.9825C0 28.1851 0.607617 31.389 1.82627 34.4049C3.04473 37.4203 4.87617 40.2476 7.31445 42.6854C9.75234 45.1236 12.5795 46.9552 15.5949 48.1736C18.6107 49.3924 21.8146 49.9999 25.0172 49.9999C28.2152 49.9999 31.4134 49.3896 34.423 48.1695C37.4321 46.9498 40.2525 45.1186 42.6854 42.6854C45.1186 40.2525 46.9499 37.4321 48.1696 34.423C49.3897 31.4135 50 28.2154 50.0001 25.0172C50 21.8148 49.3924 18.6108 48.1735 15.5951ZM45.0794 33.17C44.0224 35.7759 42.4406 38.2139 40.3273 40.3274C38.2138 42.4407 35.7758 44.0225 33.17 45.0793C30.5646 46.1357 27.7913 46.6653 25.0173 46.6653C22.2363 46.6653 19.4561 46.1374 16.8446 45.0819C14.2329 44.026 11.7899 42.4445 9.67266 40.3275C7.55557 38.2102 5.97402 35.7673 4.91826 33.1555C3.86279 30.544 3.33486 27.7637 3.33496 24.9827C3.33496 22.2087 3.86465 19.4354 4.921 16.8301C5.97773 14.2243 7.55947 11.7863 9.67285 9.67275C11.7864 7.55947 14.2244 5.97773 16.8303 4.9209C19.4356 3.86445 22.209 3.33486 24.983 3.33486C27.764 3.33486 30.5442 3.8627 33.1557 4.91826C35.7674 5.97422 38.2104 7.55566 40.3276 9.67266C42.4447 11.79 44.0262 14.2329 45.082 16.8446C46.1375 19.4561 46.6654 22.2363 46.6654 25.0173C46.6654 27.7912 46.1358 30.5645 45.0794 33.17Z" fill="#EF7F2F"/>
<path fill-rule="evenodd" clip-rule="evenodd" d="M15 30.0005C17.7614 30.0005 20 27.7619 20 25.0005C20 22.2391 17.7614 20.0005 15 20.0005C12.2386 20.0005 10 22.2391 10 25.0005C10 27.7619 12.2386 30.0005 15 30.0005ZM15 33.0005C19.4183 33.0005 23 29.4188 23 25.0005C23 20.5822 19.4183 17.0005 15 17.0005C10.5817 17.0005 7 20.5822 7 25.0005C7 29.4188 10.5817 33.0005 15 33.0005Z" fill="#EF7F2F"/>
<path fill-rule="evenodd" clip-rule="evenodd" d="M35 30.0005C37.7614 30.0005 40 27.7619 40 25.0005C40 22.2391 37.7614 20.0005 35 20.0005C32.2386 20.0005 30 22.2391 30 25.0005C30 27.7619 32.2386 30.0005 35 30.0005ZM35 33.0005C39.4183 33.0005 43 29.4188 43 25.0005C43 20.5822 39.4183 17.0005 35 17.0005C30.5817 17.0005 27 20.5822 27 25.0005C27 29.4188 30.5817 33.0005 35 33.0005Z" fill="#EF7F2F"/>
<path fill-rule="evenodd" clip-rule="evenodd" d="M29 26.0005H21.5V23.0005H29V26.0005Z" fill="#EF7F2F"/>
<path fill-rule="evenodd" clip-rule="evenodd" d="M19.5599 19.5619C19.5603 19.5616 19.5607 19.5611 18.5 18.5005C17.4393 17.4398 17.4398 17.4394 17.4402 17.439L17.4411 17.4381L17.4431 17.436L17.4479 17.4313L17.4602 17.4192C17.4697 17.41 17.4818 17.3984 17.4963 17.3846C17.5254 17.357 17.5645 17.3206 17.6134 17.2767C17.7111 17.189 17.8485 17.0708 18.0237 16.9325C18.3731 16.6566 18.8776 16.297 19.5215 15.9393C20.807 15.2251 22.6822 14.5005 25 14.5005C27.3282 14.5005 29.0999 15.2316 30.295 15.9785C30.8896 16.3501 31.341 16.725 31.6509 17.0156C31.8062 17.1611 31.9269 17.2864 32.0133 17.3809C32.0565 17.4282 32.0913 17.4679 32.1176 17.4987C32.1308 17.5141 32.1418 17.5274 32.1507 17.5382L32.1626 17.5526L32.1673 17.5585L32.1704 17.5623C32.1709 17.5629 32.1713 17.5634 31 18.5005C29.8287 19.4375 29.8291 19.4381 29.8296 19.4386L29.8319 19.4416L29.8345 19.4447L29.8375 19.4484C29.8382 19.4493 29.8382 19.4492 29.8375 19.4484C29.8371 19.448 29.8365 19.4472 29.8355 19.4461C29.8306 19.4403 29.8185 19.4263 29.7992 19.4052C29.7606 19.363 29.6939 19.293 29.5991 19.2042C29.409 19.0259 29.1104 18.7759 28.705 18.5225C27.9001 18.0194 26.6718 17.5005 25 17.5005C23.3178 17.5005 21.943 18.0259 20.9785 18.5617C20.4974 18.829 20.1269 19.0943 19.8826 19.2872C19.7608 19.3833 19.6717 19.4604 19.6171 19.5094C19.5898 19.5339 19.5713 19.5512 19.5618 19.5603L19.5544 19.5674C19.5545 19.5673 19.5549 19.5669 19.5558 19.566L19.5578 19.564L19.5591 19.5627L19.5599 19.5619Z" fill="#EF7F2F"/>
</g>
<defs>
<clipPath id="clip0_397_4095">
<rect width="50" height="50" fill="white"/>
</clipPath>
</defs>
</svg>
