<svg width="22" height="22" viewBox="0 0 22 22" fill="none" xmlns="http://www.w3.org/2000/svg">
<path fill-rule="evenodd" clip-rule="evenodd" d="M8.31017 8.61526C8.61619 8.41124 8.8 8.06779 8.8 7.7V3.3C8.8 1.47747 7.32254 0 5.5 0H1.1C0.492492 0 0 0.492492 0 1.1C0 12.0352 9.96479 22 20.9 22C21.5075 22 22 21.5075 22 20.9V16.5C22 14.6774 20.5226 13.2 18.7 13.2H14.3C13.9322 13.2 13.5887 13.3838 13.3847 13.6898L11.2889 16.8336C9.00614 15.3576 7.00618 13.4081 5.46781 11.1639L5.16635 10.7111L8.31017 8.61526ZM14.8888 15.3999H18.7001C19.3076 15.3999 19.8001 15.8924 19.8001 16.4999V19.7617C17.6692 19.6143 15.5894 19.0444 13.6496 18.1407L13.2046 17.9262L14.8888 15.3999ZM2.23804 2.2002H5.4999C6.10741 2.2002 6.5999 2.69269 6.5999 3.3002V7.1115L4.07362 8.79569C3.0456 6.73049 2.39683 4.49508 2.23804 2.2002Z" fill="#333333"/>
</svg>
