<svg width="97" height="99" viewBox="0 0 97 99" fill="none" xmlns="http://www.w3.org/2000/svg">
<path d="M46.9605 2.40654L46.9606 14.9969C28.0233 15.8196 12.9226 31.4496 12.9226 50.6105C12.9226 70.2981 28.865 86.258 48.5309 86.258C67.6703 86.258 83.2828 71.1413 84.1051 52.1836L96.6817 52.1836C95.8523 78.0917 74.6119 98.8395 48.5309 98.8395C21.9241 98.8395 0.35498 77.2467 0.35498 50.6105C0.35498 24.5003 21.0805 3.23626 46.9605 2.40654Z" fill="white"/>
<path d="M96.339 44.6214C96.5188 46.0747 96.634 47.548 96.6817 49.0384L84.1052 49.0384C84.0695 48.2156 84.006 47.4 83.9155 46.5926L96.339 44.6214Z" fill="white"/>
<path d="M94.8219 37.2068C95.2288 38.6174 95.573 40.0546 95.8514 41.5151L83.4276 43.4845C83.2643 42.6789 83.074 41.8832 82.8574 41.0984L94.8219 37.2068Z" fill="white"/>
<path d="M94.4491 29.0572C95.0743 30.389 95.6404 31.7541 96.1441 33.1491L84.1798 37.0412C83.8922 36.2727 83.5789 35.5168 83.2409 34.7745L94.4491 29.0572Z" fill="white"/>
<path d="M88.4121 23.5461C89.2396 24.7658 90.0128 26.0255 90.728 27.3216L79.5197 33.0387C79.1157 32.3263 78.688 31.6292 78.2375 30.9484L88.4121 23.5461Z" fill="white"/>
<path d="M85.6157 16.0972C86.6238 17.1741 87.5832 18.2973 88.4902 19.4633L78.3152 26.8649C77.8057 26.2251 77.2746 25.6033 76.7232 25.0006L85.6157 16.0972Z" fill="white"/>
<path d="M78.1054 12.5359C79.2701 13.4439 80.3921 14.4043 81.4678 15.4135L72.5742 24.3159C71.9725 23.7641 71.3517 23.2328 70.713 22.7229L78.1054 12.5359Z" fill="white"/>
<path d="M73.2158 6.35423C74.5101 7.07015 75.768 7.84395 76.9861 8.67215L69.5929 18.8586C68.9126 18.4074 68.2159 17.979 67.5039 17.5744L73.2158 6.35423Z" fill="white"/>
<path d="M64.909 5.24004C66.3024 5.74426 67.666 6.31099 68.9964 6.93685L63.2853 18.1575C62.5439 17.8191 61.7888 17.5054 61.0211 17.2175L64.909 5.24004Z" fill="white"/>
<path d="M57.6162 3.23776C59.075 3.51646 60.5104 3.86102 61.9192 4.26822L58.0325 16.2461C57.2485 16.0293 56.4537 15.8387 55.649 15.6753L57.6162 3.23776Z" fill="white"/>
<path d="M50.1023 0.284485C51.5907 0.332235 53.0621 0.447572 54.5134 0.627532L52.5443 13.0647C51.7381 12.9742 50.9238 12.9106 50.1023 12.8749L50.1023 0.284485Z" fill="white"/>
<path fill-rule="evenodd" clip-rule="evenodd" d="M63.1931 50.6105L42.2471 64.2404V36.9805L63.1931 50.6105Z" fill="white"/>
</svg>
