<svg width="34" height="29" viewBox="0 0 34 29" fill="none" xmlns="http://www.w3.org/2000/svg">
<path fill-rule="evenodd" clip-rule="evenodd" d="M3.64564 29L1.27743 23.5909L2.71067 22.6548C5.9228 20.5566 7.93095 18.5052 8.97031 16.5594C9.32002 15.8905 9.53914 15.2514 9.64693 14.6361C9.13357 14.6918 8.70645 14.7373 8.36622 14.7722C7.88864 14.8213 7.42776 14.8678 7.2153 14.8678C5.83458 14.8678 4.52798 14.5825 3.36221 13.9387C0.9916 12.6431 0 10.2919 0 7.55521C0 5.71541 0.655935 4.03092 1.82574 2.54326C3.25896 0.720645 5.42181 0 7.82917 0C10.7119 0 13.1418 1.17005 14.9684 3.41479C15.6257 4.22249 16.1615 5.07837 16.5736 5.97855C16.8506 4.61133 17.4716 3.37213 18.4476 2.30625C19.9282 0.689396 21.96 0 24.2348 0C27.0213 0 29.4003 1.13363 31.2588 3.26506C33.1276 5.40818 34 8.09046 34 11.1468C34 14.8775 32.649 18.3403 30.1041 21.4933C27.658 24.5241 24.9483 26.7752 21.9512 28.132L20.1251 28.9588L17.6137 23.5245L19.2063 22.5993C21.1639 21.462 22.8472 20.0153 24.2657 18.2513C25.2988 16.9664 25.8673 15.764 26.0808 14.6296C25.5503 14.6882 25.1108 14.7357 24.763 14.7719C24.2935 14.8209 23.8352 14.8678 23.6209 14.8678C21.8958 14.8678 20.3084 14.228 18.8932 13.1371C18.3627 12.7281 17.9228 12.2624 17.5682 11.7496C17.3669 15.5158 16.0086 18.8712 13.509 21.7446C10.9889 24.6415 8.33318 26.8045 5.52211 28.1211L3.64564 29ZM4.33481 12.166C5.15331 12.619 6.11347 12.8455 7.2153 12.8455C7.3727 12.8455 8.47453 12.7322 10.5208 12.5057C11.0559 12.5057 11.3944 12.6271 11.536 12.8697C11.6777 13.1124 11.7485 13.3955 11.7485 13.7191C11.7485 14.981 11.418 16.2429 10.7569 17.5048C9.49765 19.8668 7.18382 22.1479 3.81538 24.3482L4.66536 26.2896C5.26139 26.0104 5.8547 25.6857 6.4453 25.3155C8.31904 24.1409 10.1655 22.508 11.9846 20.4169C14.3772 17.6666 15.5734 14.4471 15.5734 10.7585C15.5734 8.49355 14.8494 6.47127 13.4013 4.69167C11.9531 2.91207 10.0958 2.02227 7.82917 2.02227C5.8144 2.02227 4.34268 2.61278 3.414 3.79378C2.48532 4.97479 2.02098 6.2286 2.02098 7.55521C2.02098 9.7878 2.79226 11.3247 4.33481 12.166ZM20.221 24.3482C22.3931 23.0863 24.2662 21.4765 25.8403 19.519C27.4143 17.5614 28.2013 15.5796 28.2013 13.5735C28.2013 13.2176 28.0833 12.9506 27.8472 12.7727C27.6111 12.5947 27.2884 12.5057 26.8791 12.5057C24.8644 12.7322 23.7783 12.8455 23.6209 12.8455C22.4246 12.8455 21.2598 12.4087 20.1265 11.535C18.9932 10.6614 18.4266 9.38335 18.4266 7.70082C18.4266 6.11535 18.9303 4.77256 19.9376 3.67245C20.945 2.57233 22.3774 2.02227 24.2348 2.02227C26.4069 2.02227 28.2407 2.87972 29.736 4.5946C31.2314 6.30949 31.979 8.49355 31.979 11.1468C31.979 14.35 30.83 17.3754 28.5319 20.2227C26.7594 22.4189 24.8839 24.1242 22.9053 25.3387C22.3937 25.6528 21.8751 25.934 21.3497 26.1824C21.2727 26.2188 21.1955 26.2545 21.1182 26.2896L20.221 24.3482Z" fill="white"/>
</svg>
