<svg width="23" height="15" viewBox="0 0 23 15" fill="none" xmlns="http://www.w3.org/2000/svg">
<path fill-rule="evenodd" clip-rule="evenodd" d="M7.86385 1.81915C8.24688 1.13362 9.0075 0.742676 9.76323 0.742676H12.9859C13.4751 0.742676 13.9525 0.85526 14.3497 1.15122C14.7441 1.44508 14.9486 1.83727 15.0566 2.19314C15.1923 2.64053 15.2087 3.17072 15.2019 3.63126C15.4859 3.11507 15.7185 2.63484 15.8555 2.29856L15.8593 2.28924L15.8633 2.27999C16.2832 1.30883 17.17 0.742676 18.2583 0.742676H20.3087C21.0114 0.742676 21.7181 0.962929 22.1897 1.56452L22.1916 1.5669C22.5184 1.98647 22.7383 2.63265 22.5006 3.45623C22.4982 3.46537 22.4958 3.47432 22.4932 3.48309C22.3863 3.88545 22.1628 4.35872 21.925 4.80442C21.6717 5.27936 21.3628 5.79454 21.053 6.284C20.642 6.93322 20.2148 7.56007 19.8899 8.01517C20.1667 8.29319 20.5253 8.65577 20.8942 9.05378C21.278 9.46782 21.6849 9.93296 22.0306 10.3947C22.364 10.84 22.6932 11.3506 22.8571 11.8476L22.8606 11.8582L22.8638 11.8688C23.1334 12.7561 22.8959 13.4389 22.5564 13.8771C22.2056 14.3291 21.5748 14.7427 20.597 14.7427H18.5465C17.6532 14.7427 17.0518 14.386 16.5319 13.9074C16.309 13.7021 16.0835 13.4585 15.8609 13.2179C15.8486 13.2046 15.8363 13.1913 15.824 13.178C15.6328 12.9715 15.4278 12.7509 15.1912 12.5123C15.1859 12.6835 15.1657 12.8728 15.116 13.0638C14.9909 13.5441 14.6879 14.0125 14.1143 14.3302C13.587 14.6223 12.9102 14.7427 12.1011 14.7427C8.4021 14.7427 5.61093 12.0662 3.8283 9.48144C2.91656 8.15946 2.2155 6.78797 1.74024 5.63525C1.50242 5.05843 1.31731 4.52712 1.19009 4.07537C1.06915 3.64592 0.980469 3.21987 0.980469 2.881C0.980469 2.29531 1.18604 1.72358 1.6591 1.3067C2.12026 0.900305 2.71918 0.74348 3.31031 0.74348H5.36074C6.06896 0.74348 6.65222 0.965072 7.09099 1.37877C7.37623 1.64771 7.56094 1.9625 7.68874 2.24492C7.72859 2.09954 7.78679 1.95706 7.86385 1.81915ZM13.1828 11.3744C13.1801 11.0488 13.1784 10.7071 13.1923 10.4763L13.2644 9.27498L14.4641 9.60139C14.9037 9.72099 15.4881 10.083 16.3995 10.9383L16.4062 10.9447L16.4128 10.9511C16.7772 11.306 17.0725 11.6241 17.3178 11.889L17.3214 11.8929C17.5736 12.1653 17.7509 12.3569 17.9146 12.5075C18.1942 12.7649 18.3259 12.8084 18.5465 12.8084H20.597C20.7794 12.8084 20.8678 12.7731 20.9002 12.7571C20.9336 12.7406 20.947 12.7249 20.9525 12.7179C20.9582 12.7106 20.9666 12.6981 20.972 12.6713C20.977 12.6467 20.9874 12.5705 20.9445 12.4241C20.8771 12.2273 20.7022 11.9223 20.4068 11.5277C20.1184 11.1425 19.7623 10.7332 19.4012 10.3437C19.0417 9.95583 18.6891 9.60022 18.4093 9.31928C18.3912 9.3011 18.3733 9.28314 18.3556 9.26542C18.2394 9.14879 18.1337 9.04273 18.051 8.95759C18.0478 8.95428 18.0444 8.95074 18.0407 8.94699C18.0366 8.94273 18.0322 8.93821 18.0276 8.93344H16.6811L17.8969 7.38262C18.134 7.08016 18.7492 6.21405 19.3434 5.27537C19.6388 4.80872 19.9207 4.33708 20.1438 3.91883C20.3406 3.54996 20.4665 3.26833 20.5275 3.08527V3.08021L20.5613 2.96817L20.5815 2.88876L20.5842 2.88345C20.6033 2.79568 20.5957 2.75182 20.5937 2.74172C20.5922 2.7346 20.5899 2.72899 20.5899 2.72899C20.5864 2.72492 20.5801 2.71951 20.5607 2.71163C20.5291 2.69885 20.453 2.67696 20.3087 2.67696H18.2583C17.9764 2.67696 17.822 2.77639 17.7154 3.01763C17.4706 3.61581 17.028 4.48274 16.5307 5.29998C16.0461 6.09648 15.4366 6.96887 14.842 7.47333L13.2318 8.83951L13.1793 6.77055C13.1503 5.6312 13.17 4.76076 13.185 4.12417C13.1866 4.06086 13.1882 3.99912 13.1898 3.93978C13.1964 3.69145 13.2022 3.47529 13.1968 3.26901C13.1901 3.01342 13.1667 2.84514 13.1339 2.73693C13.1272 2.71498 13.1211 2.69861 13.1161 2.68677C13.0911 2.68197 13.0496 2.67696 12.9859 2.67696H9.76323C9.73543 2.67696 9.70079 2.68503 9.66953 2.70232C9.64105 2.71806 9.62995 2.7331 9.62759 2.7368C9.62743 2.73907 9.62737 2.74424 9.62865 2.75297C9.63246 2.77894 9.65419 2.87155 9.78014 3.02372L9.78087 3.0246C10.0347 3.33204 10.2176 3.64771 10.324 4.01016C10.4262 4.35845 10.4408 4.69544 10.4374 5.00641C10.4354 5.18764 10.4278 5.36915 10.4196 5.56372C10.3987 6.05989 10.3743 6.64095 10.4306 7.51875L10.6035 10.2108L8.69815 8.23817C7.93824 7.45142 6.75299 5.54773 5.92803 3.20643C5.83033 2.93967 5.75243 2.82038 5.69115 2.7626C5.66774 2.74053 5.64371 2.72471 5.60838 2.7116C5.57038 2.69751 5.49497 2.67777 5.36074 2.67777H3.31031C3.1921 2.67777 3.11404 2.69343 3.06804 2.7082C3.02421 2.72226 3.00981 2.73532 3.00981 2.73532L3.00884 2.73635C3.00884 2.73635 3.00635 2.73987 3.00323 2.74741C2.99711 2.76223 2.98399 2.80302 2.98399 2.881C2.98399 2.95357 3.01322 3.17655 3.12343 3.5679C3.22736 3.93695 3.38662 4.39821 3.60171 4.9199C4.03227 5.96419 4.67116 7.21348 5.49596 8.40941C7.18641 10.8605 9.45469 12.8084 12.1011 12.8084C12.7384 12.8084 13.0175 12.7078 13.1173 12.6525C13.165 12.626 13.1667 12.6189 13.1711 12.5999C13.1716 12.5975 13.1722 12.595 13.1729 12.5922C13.1933 12.5138 13.1951 12.3947 13.1742 12.1481C13.1731 12.1354 13.1719 12.1216 13.1706 12.107C13.1622 12.0102 13.1505 11.8762 13.149 11.7543C13.148 11.6699 13.1494 11.532 13.1828 11.3744ZM20.5894 2.72797L20.5899 2.72899Z" fill="#999999"/>
</svg>
