<svg width="40" height="40" viewBox="0 0 40 40" fill="none" xmlns="http://www.w3.org/2000/svg">
<path fill-rule="evenodd" clip-rule="evenodd" d="M15.1094 15.6641C15.6658 15.2932 16 14.6687 16 14V6C16 2.6863 13.3137 0 10 0H2C0.89544 0 0 0.89544 0 2C0 21.8822 18.1178 40 38 40C39.1046 40 40 39.1046 40 38V30C40 26.6862 37.3138 24 34 24H26C25.3312 24 24.7068 24.3342 24.3358 24.8906L20.5252 30.6066C16.3748 27.923 12.7385 24.3784 9.94148 20.298L9.39336 19.4748L15.1094 15.6641ZM27.0704 28H34C35.1046 28 36 28.8954 36 30V35.9306C32.1256 35.6626 28.3442 34.6264 24.8174 32.9832L24.0082 32.5932L27.0704 28ZM4.06953 4.00039H10.0002C11.1048 4.00039 12.0002 4.89583 12.0002 6.00039V12.93L7.40695 15.9922C5.53783 12.2373 4.35825 8.17291 4.06953 4.00039Z" fill="white"/>
</svg>
