<svg width="91" height="35" viewBox="0 0 91 35" fill="none" xmlns="http://www.w3.org/2000/svg">
<path fill-rule="evenodd" clip-rule="evenodd" d="M3.80129 30.5692L9.01193 18.8547H11.7454V30.5692H15.034V0H10.1224C5.2961 0 1.23863 3.20657 1.23863 9.61967C1.23863 14.1943 3.03245 16.6741 5.72317 18.0422L0 30.5692H3.80129ZM9.99409 2.77904H11.7453V16.1182H9.99409C7.13256 16.1182 4.78345 14.5363 4.78345 9.61968C4.78345 4.53192 7.3461 2.77904 9.99409 2.77904Z" fill="#FF0000"/>
<path fill-rule="evenodd" clip-rule="evenodd" d="M57.3871 31.0665C52.9453 31.0665 50.2118 27.518 50.2118 20.8912C50.2118 13.9649 52.1338 8.91992 56.7038 8.91992C60.2915 8.91992 62.6406 11.6134 62.6406 18.9245V20.7629H53.6713C53.6713 25.6367 55.038 28.2022 57.686 28.2022C59.5653 28.2022 61.0602 27.3471 61.9143 26.7485L62.6833 29.3136C61.166 30.4793 59.2995 31.097 57.3871 31.0665ZM31.0776 9.21912V30.7673H27.7889V21.1049H22.8345V30.7673H19.5032V9.21912H22.8345V18.3685H27.7889V9.21912H31.0776ZM48.2045 35H45.2147V30.7673H35.9893V35H32.9995V28.031H34.3236C36.2883 23.4564 36.5018 16.7866 36.5018 11.0575V9.21912H46.4961V28.031H48.2045V35ZM39.4915 11.9127H43.2073V28.031H37.4841C39.2779 23.4563 39.4915 16.8294 39.4915 12.2974V11.9127ZM59.2238 18.0265H53.7141C53.9278 14.1787 54.6537 11.6562 56.704 11.6562C58.6258 11.6562 59.2238 14.3496 59.2238 18.0265ZM69.3886 20.0362V30.7673H66.0571V9.21912H69.3886V19.1809L74.5564 9.21912H77.9306L72.5919 19.352L78.6993 30.7673H75.069L69.3886 20.0362ZM86.7719 8.91992C81.732 8.91992 79.1265 13.2381 79.1265 19.9934C79.1265 27.3471 81.9027 31.0665 86.5154 31.0665C88.1617 31.1117 89.7639 30.5312 91 29.4419L90.2313 26.9621C89.224 27.8338 87.9323 28.3054 86.6009 28.2874C83.9102 28.2874 82.6289 25.2092 82.6289 19.8223C82.6289 14.3924 84.3373 11.699 86.7291 11.699C88.0959 11.699 89.3771 12.4257 90.274 13.1953L90.7438 10.0315C89.8042 9.43301 88.6936 8.91992 86.7719 8.91992Z" fill="black"/>
</svg>
