<svg width="22" height="22" viewBox="0 0 22 22" fill="none" xmlns="http://www.w3.org/2000/svg">
<path fill-rule="evenodd" clip-rule="evenodd" d="M11.9204 0.000719905L10.08 0C8.36762 0.00348854 6.83343 0.0279136 5.54365 0.194495C4.05994 0.386123 2.7141 0.785946 1.74692 1.73043L1.73845 1.7387L1.73018 1.74716C0.781345 2.71864 0.384371 4.10442 0.194107 5.59549C0.0285736 6.89275 0.00438058 8.41943 0.000854909 10.0801L0 11.1107C0 11.3124 1.8239e-05 11.5124 0.000255585 11.7105V11.9205C0.00378138 13.5812 0.0283185 15.1078 0.193852 16.4051C0.384116 17.8961 0.781091 19.2819 1.72993 20.2534L1.73815 20.2618L1.74656 20.27C2.71378 21.2148 4.0597 21.6147 5.54346 21.8062C6.8333 21.9727 8.36759 21.9962 10.08 21.9996L11.9202 22.0001C13.6326 21.9968 15.1668 21.9727 16.4565 21.8062C17.9402 21.6146 19.286 21.2148 20.2532 20.27L20.2616 20.2618L20.2698 20.2534C21.2187 19.2819 21.6156 17.8961 21.8059 16.4051C21.9715 15.1079 21.9958 13.5812 21.9995 11.9204L22.0003 10.0801C21.9966 8.41939 21.9715 6.89271 21.8059 5.59545C21.6156 4.10441 21.2187 2.71864 20.2698 1.74716L20.2616 1.7387L20.2531 1.73043C19.2859 0.785962 17.9402 0.386129 16.4566 0.194496C15.1669 0.0279135 13.6327 0.00420839 11.9204 0.000719905ZM9.85728 2.00146C8.24564 2.00699 6.90667 2.03507 5.79983 2.17802C4.46606 2.35028 3.65243 2.67048 3.15277 3.15305C2.67451 3.64846 2.35153 4.4889 2.17802 5.84864C2.03578 6.96338 2.00725 8.29636 2.00162 9.8573C3.69303 9.7987 4.92291 9.72546 5.90112 9.53817C7.01162 9.32555 7.72653 8.97766 8.36111 8.36111C8.97764 7.72652 9.32552 7.01162 9.53814 5.9011C9.72543 4.92288 9.79868 3.69295 9.85728 2.00146ZM7.96455 11.0003C8.62626 10.7127 9.21644 10.3213 9.76693 9.78373L9.77545 9.77541L9.78377 9.7669C10.3212 9.21648 10.7126 8.62639 11.0002 7.96478C11.2878 8.62639 11.6792 9.21648 12.2167 9.7669L12.225 9.77541L12.2335 9.78372C12.7839 10.3212 13.3741 10.7127 14.0357 11.0003C13.3741 11.2879 12.7839 11.6793 12.2335 12.2169L12.225 12.2252L12.2167 12.2337C11.6791 12.7842 11.2877 13.3744 11.0001 14.0361C10.7125 13.3744 10.321 12.7842 9.78352 12.2337L9.7752 12.2252L9.76668 12.2168C9.21626 11.6794 8.62616 11.2879 7.96455 11.0003ZM2.00136 12.1433C2.007 13.7042 2.03552 15.0372 2.17777 16.1519C2.35128 17.5117 2.67428 18.3521 3.15257 18.8476C3.65218 19.3303 4.46574 19.6505 5.79952 19.8226C6.90636 19.9655 8.24534 19.9935 9.85703 19.9988C9.79843 18.3075 9.72518 17.0776 9.53789 16.0994C9.32527 14.989 8.97739 14.2741 8.36086 13.6395C7.72628 13.0229 7.01138 12.675 5.90087 12.4624C4.92266 12.2751 3.69278 12.2019 2.00136 12.1433ZM12.1431 19.9988C13.7548 19.9935 15.0937 19.9655 16.2004 19.8226C17.5341 19.6505 18.3475 19.3303 18.8472 18.8476C19.3255 18.3522 19.6485 17.5117 19.822 16.1519C19.9643 15.0372 19.9929 13.7042 19.9987 12.1433C18.3073 12.2019 17.0775 12.2751 16.0993 12.4624C14.9888 12.675 14.2739 13.0229 13.6393 13.6395C13.0228 14.2741 12.6749 14.989 12.4623 16.0994C12.275 17.0776 12.2017 18.3075 12.1431 19.9988ZM19.9987 9.8573C19.9929 8.29638 19.9643 6.96341 19.822 5.84867C19.6485 4.48893 19.3255 3.64849 18.8473 3.15307C18.3476 2.67047 17.534 2.35028 16.2004 2.17802C15.0936 2.03507 13.7547 2.00699 12.1431 2.00146C12.2017 3.69295 12.275 4.92287 12.4623 5.9011C12.6749 7.01162 13.0228 7.72652 13.6393 8.36111C14.2739 8.97766 14.9888 9.32555 16.0993 9.53817C17.0775 9.72546 18.3073 9.7987 19.9987 9.8573Z" fill="#999999"/>
</svg>
