<svg width="30" height="28" viewBox="0 0 30 28" fill="none" xmlns="http://www.w3.org/2000/svg">
<path fill-rule="evenodd" clip-rule="evenodd" d="M28.9015 27.97C30.7069 28.486 28.3843 22.075 28.3843 22.075C29.4186 18.995 30.4428 8.48 29.8002 5.275C29.1575 2.069 26.7476 2.18 22.3193 1.303C17.8117 0.402997 6.47501 -0.112003 4.01486 0.0199967C1.56978 0.146997 -0.227629 1.81 0.0234059 5.15C0.28147 8.48 4.20364 20.89 6.14866 23.97C8.08665 27.05 10.9515 26.512 12.6605 26.306C15.0042 26.018 23.8265 23.97 23.8265 23.97C23.0373 22.96 27.096 27.454 28.9005 27.97H28.9015ZM17.0686 8.58999L18.639 5.26599H23.3384L18.2012 15.008V20.748H12.809V15.008L9.93716 9.56199L7.66479 5.26599H12.3642L15.5011 11.891L17.0686 8.58999Z" fill="#ED484A"/>
</svg>
