<svg width="23" height="17" viewBox="0 0 23 17" fill="none" xmlns="http://www.w3.org/2000/svg">
<path d="M5.24789 0.432149C9.2239 -0.144045 14.7388 -0.144045 18.7129 0.432119C20.6966 0.719179 22.2558 2.2357 22.594 4.19311C23.1093 7.1667 23.1093 9.83269 22.5939 12.8066C22.2538 14.7652 20.696 16.2809 18.7144 16.568C16.7658 16.8513 14.4088 17 11.9896 17C9.56962 17 7.20591 16.8509 5.2481 16.5673C3.26386 16.2801 1.705 14.764 1.36696 12.8055C0.851656 9.83271 0.851656 7.16752 1.36686 4.19446C1.7051 2.23591 3.26418 0.719207 5.24789 0.432149ZM18.4188 2.36691C14.6396 1.819 9.32302 1.819 5.54208 2.36692C4.42316 2.52884 3.53755 3.39038 3.34243 4.52019C2.86457 7.2778 2.86457 9.72238 3.34254 12.4798C3.53752 13.6095 4.42278 14.4705 5.54201 14.6325C7.39592 14.901 9.6628 15.044 11.9896 15.044C14.3154 15.044 16.5753 14.9015 18.4198 14.6333C19.5372 14.4714 20.4222 13.6102 20.6185 12.48C21.0964 9.7224 21.0964 7.27699 20.6184 4.51892C20.4234 3.3903 19.5377 2.52882 18.4188 2.36691ZM8.31668 5.6528C8.31668 4.42029 9.69508 3.65818 10.7769 4.28928L15.67 7.14162C16.7236 7.75963 16.7236 9.25288 15.6658 9.86868L10.7741 12.7125C9.69316 13.338 8.31668 12.5804 8.31668 11.3466V5.6528ZM10.32 6.30089V10.6989L14.0977 8.50331L10.32 6.30089Z" fill="#999999"/>
</svg>
